<svg class="animated" id="freepik_stories-mojito" xmlns="http://www.w3.org/2000/svg" viewBox="0 0 500 500" version="1.1" xmlns:xlink="http://www.w3.org/1999/xlink" xmlns:svgjs="http://svgjs.com/svgjs"><style>svg#freepik_stories-mojito:not(.animated) .animable {opacity: 0;}svg#freepik_stories-mojito.animated #freepik--Mojito--inject-44 {animation: 3s Infinite  linear floating;animation-delay: 0s;}            @keyframes floating {                0% {                    opacity: 1;                    transform: translateY(0px);                }                50% {                    transform: translateY(-10px);                }                100% {                    opacity: 1;                    transform: translateY(0px);                }            }        .animator-hidden { display: none; }</style><g id="freepik--background-complete--inject-44" class="animable animator-hidden" style="transform-origin: 247.695px 240.246px;"><path d="M130.41,195.69l8.1,3.05-7,2a7.37,7.37,0,0,0-5,4.78L124,213.3l-3.14-7.81a7.34,7.34,0,0,0-4.3-4.17l-7.12-2.58,7.71-3.17a7.36,7.36,0,0,0,4.06-4.15l2.79-7.24,2,6.73A7.37,7.37,0,0,0,130.41,195.69Z" style="fill: rgb(235, 235, 235); transform-origin: 123.975px 198.74px;" id="el70zo2dioqxj" class="animable"></path><path d="M313.85,59.41,322,62.46l-7,2a7.33,7.33,0,0,0-5,4.77L307.4,77l-3.13-7.81A7.38,7.38,0,0,0,300,65l-7.12-2.58,7.71-3.17a7.33,7.33,0,0,0,4.06-4.15l2.79-7.24,2,6.73A7.34,7.34,0,0,0,313.85,59.41Z" style="fill: rgb(235, 235, 235); transform-origin: 307.44px 62.43px;" id="eleti47to3ei5" class="animable"></path><path d="M170.52,109.26l4.36,1.64L171.09,112a4,4,0,0,0-2.68,2.57l-1.37,4.2-1.69-4.21A3.94,3.94,0,0,0,163,112.3l-3.84-1.4,4.16-1.7a4,4,0,0,0,2.19-2.24l1.5-3.9,1.08,3.63A3.94,3.94,0,0,0,170.52,109.26Z" style="fill: rgb(235, 235, 235); transform-origin: 167.02px 110.915px;" id="elwcrwxmoj7c" class="animable"></path><path d="M67.18,338.86l8.11,3.05-7,2a7.35,7.35,0,0,0-5,4.78l-2.55,7.78-3.13-7.8a7.34,7.34,0,0,0-4.3-4.17l-7.13-2.58,7.72-3.17A7.39,7.39,0,0,0,58,334.59l2.78-7.24,2,6.73A7.36,7.36,0,0,0,67.18,338.86Z" style="fill: rgb(235, 235, 235); transform-origin: 60.735px 341.91px;" id="elp2cbmkxas28" class="animable"></path><path d="M352,89l4.72,1.78L352.63,92a4.28,4.28,0,0,0-2.89,2.78l-1.48,4.54-1.83-4.55a4.27,4.27,0,0,0-2.51-2.43l-4.14-1.5L344.27,89a4.24,4.24,0,0,0,2.36-2.41l1.63-4.22,1.16,3.92A4.27,4.27,0,0,0,352,89Z" style="fill: rgb(235, 235, 235); transform-origin: 348.25px 90.845px;" id="elavr6242g37" class="animable"></path><path d="M102.16,171l4.36,1.63-3.79,1.08a3.94,3.94,0,0,0-2.67,2.56l-1.37,4.19L97,176.3a4,4,0,0,0-2.31-2.24l-3.83-1.39L95,171a3.89,3.89,0,0,0,2.18-2.23l1.5-3.89,1.08,3.62A4,4,0,0,0,102.16,171Z" style="fill: rgb(235, 235, 235); transform-origin: 98.69px 172.67px;" id="eltl1quhoaqjb" class="animable"></path><path d="M444.86,247l4.35,1.64-3.78,1.08a3.94,3.94,0,0,0-2.67,2.56l-1.37,4.19-1.68-4.2a3.94,3.94,0,0,0-2.32-2.24l-3.82-1.39,4.14-1.7a4,4,0,0,0,2.18-2.23l1.5-3.89,1.07,3.62A4,4,0,0,0,444.86,247Z" style="fill: rgb(235, 235, 235); transform-origin: 441.39px 248.645px;" id="eludkiyhn9hzk" class="animable"></path><path d="M132,279.82c2.31-2.47,4.32-4.33,5.32-9.37.51-2.56-.51-6-1.15-7.68-3.07-8.25-5.36-15.47-10-23h0l.14,5.74h0A21.28,21.28,0,0,0,119.47,235h0l.21,4.79h0a37.65,37.65,0,0,0-14-13.18h0l3.12,6.46h0a29.34,29.34,0,0,0-17.23-11.1h0a12.34,12.34,0,0,0,3.57,5.83h0a40.47,40.47,0,0,0-16.58-8.09h0l3.16,5.69h0a18.3,18.3,0,0,0-15.41-1.81h0l4.47,2.3h0a26,26,0,0,0-20.18,4.35h0q4.37,4,8.71,8.12h0a3.87,3.87,0,0,0-3.8,1.51h0l10.94,9.32h0l-3.56.27h0a46.23,46.23,0,0,0,14.36,15.4h0l-4.75,1h0A43.15,43.15,0,0,0,92,280h0a1.33,1.33,0,0,0-.93,1.31c.13,1.15,1.27,1.9,2.29,2.45,7.05,3.77,15.5,5,23.32,4.34,0,0,7.82-.18,12.3-4.33A19.2,19.2,0,0,0,132,279.82Z" style="fill: rgb(235, 235, 235); transform-origin: 94.0291px 253.99px;" id="el7pn2vsskc7t" class="animable"></path><path d="M67.7,231.85l.23.08.67.3,2.53,1.17,1.83.86,2.14,1.11c1.52.81,3.28,1.69,5.14,2.8l3,1.71c1,.61,2.06,1.28,3.14,2,2.18,1.33,4.42,2.89,6.8,4.5,4.7,3.3,9.74,7.12,14.85,11.34,10.19,8.49,18.83,16.82,25,22.9,3.1,3,5.58,5.52,7.29,7.25l2,2,.49.53c.11.12.17.19.16.2l-.19-.16-.54-.49-2-1.93-7.4-7.12c-6.26-6-14.94-14.29-25.11-22.76-5.1-4.21-10.12-8-14.79-11.35-2.36-1.62-4.59-3.19-6.76-4.53-1.07-.68-2.1-1.37-3.11-2l-2.92-1.73c-1.85-1.14-3.6-2-5.1-2.87l-2.11-1.14L71,233.58l-2.49-1.26-.64-.34C67.76,231.9,67.69,231.86,67.7,231.85Z" style="fill: rgb(224, 224, 224); transform-origin: 105.335px 261.225px;" id="elvsvsbg6ts2" class="animable"></path><path d="M71.82,249.34a3.77,3.77,0,0,1,1.06-.12c.68,0,1.67-.07,2.89-.09,2.44,0,5.81,0,9.53.13s7.09.4,9.52.68c1.21.13,2.19.27,2.87.39a3.77,3.77,0,0,1,1,.24c0,.08-1.51-.09-3.93-.26s-5.79-.37-9.51-.52-7.08-.23-9.52-.28l-2.88-.08A3.79,3.79,0,0,1,71.82,249.34Z" style="fill: rgb(224, 224, 224); transform-origin: 85.255px 249.86px;" id="eljp2o55q8hcn" class="animable"></path><path d="M85.73,231.05A61,61,0,0,1,89,238.28a59.37,59.37,0,0,1,2.75,7.42,56.78,56.78,0,0,1-3.24-7.22A58.07,58.07,0,0,1,85.73,231.05Z" style="fill: rgb(224, 224, 224); transform-origin: 88.74px 238.375px;" id="ele8bt3cj1vr" class="animable"></path><path d="M80.51,264.73a6.21,6.21,0,0,1,1.35,0c.86,0,2.1,0,3.64,0,3.09-.07,7.34-.31,12-.62s8.95-.63,12-.8c1.54-.08,2.79-.13,3.65-.15a5.9,5.9,0,0,1,1.35,0,6,6,0,0,1-1.33.17l-3.65.33c-3.07.26-7.32.63-12,.95s-9,.49-12.06.47c-1.55,0-2.8-.08-3.67-.15A7.93,7.93,0,0,1,80.51,264.73Z" style="fill: rgb(224, 224, 224); transform-origin: 97.505px 264.101px;" id="el6smz5x92a97" class="animable"></path><path d="M100.72,232.75a3.82,3.82,0,0,1,.37,1c.23.74.5,1.62.83,2.65.68,2.24,1.62,5.33,2.62,8.77s1.86,6.55,2.42,8.83c.28,1.14.48,2.07.61,2.71a4.45,4.45,0,0,1,.14,1,32.74,32.74,0,0,1-1.11-3.63c-.7-2.38-1.59-5.42-2.57-8.79s-1.88-6.54-2.48-8.81c-.3-1.13-.52-2.06-.66-2.7A3.28,3.28,0,0,1,100.72,232.75Z" style="fill: rgb(224, 224, 224); transform-origin: 104.215px 245.23px;" id="elnz2erobqnfo" class="animable"></path><path d="M118.57,248.67a17.29,17.29,0,0,1,.75,3c.38,1.86.84,4.46,1.25,7.34s.68,5.5.83,7.4a16.8,16.8,0,0,1,.1,3.08,19.63,19.63,0,0,1-.48-3c-.27-2.05-.61-4.58-1-7.37s-.79-5.3-1.09-7.35A18.15,18.15,0,0,1,118.57,248.67Z" style="fill: rgb(224, 224, 224); transform-origin: 120.05px 259.08px;" id="elgne64vcfpao" class="animable"></path><path d="M105.51,278.17a17,17,0,0,1,3-.75c1.85-.39,4.43-.86,7.29-1.29s5.46-.73,7.35-.91a16.38,16.38,0,0,1,3.07-.16,19.63,19.63,0,0,1-3,.53l-7.31,1.07-7.3,1.13A19.51,19.51,0,0,1,105.51,278.17Z" style="fill: rgb(224, 224, 224); transform-origin: 115.865px 276.608px;" id="elf362pi4l3vu" class="animable"></path><path d="M335.57,249.53c-3-3.21-5.61-5.63-6.92-12.19-.67-3.33.67-7.76,1.5-10,4-10.73,7-20.13,13-29.89h0l-.19,7.47h0a27.7,27.7,0,0,1,8.87-13.75h0l-.27,6.24h0a48.86,48.86,0,0,1,18.2-17.15h0l-4.07,8.4h0a38.14,38.14,0,0,1,22.4-14.45h0a16.07,16.07,0,0,1-4.63,7.58h0A52.57,52.57,0,0,1,405,171.29h0l-4.12,7.41h0a23.82,23.82,0,0,1,20-2.34h0l-5.81,3h0A33.91,33.91,0,0,1,441.39,185h0l-11.33,10.56h0a5.07,5.07,0,0,1,4.95,2h0l-14.24,12.12h0l4.64.35h0a60.17,60.17,0,0,1-18.68,20h0l6.18,1.24h0a56.08,56.08,0,0,1-25.33,18.52h0a1.73,1.73,0,0,1,1.2,1.7c-.17,1.5-1.65,2.47-3,3.19-9.17,4.9-20.16,6.49-30.33,5.65,0,0-10.17-.25-16-5.64A25.17,25.17,0,0,1,335.57,249.53Z" style="fill: rgb(235, 235, 235); transform-origin: 384.929px 215.917px;" id="elv7csshjpvbt" class="animable"></path><path d="M419.17,187.13s-.09.07-.27.17l-.84.45-3.25,1.63-2.34,1.17L409.72,192c-2,1.09-4.23,2.25-6.63,3.73L399.28,198c-1.32.79-2.65,1.68-4,2.56-2.82,1.75-5.71,3.79-8.79,5.89-6.08,4.32-12.6,9.29-19.23,14.77-13.24,11-24.52,21.79-32.66,29.6l-9.63,9.28-2.63,2.51-.7.64c-.15.14-.24.21-.25.2s.06-.09.21-.25l.65-.69,2.54-2.59c2.23-2.25,5.46-5.48,9.49-9.43,8.06-7.89,19.31-18.73,32.56-29.77,6.65-5.49,13.2-10.46,19.31-14.75,3.09-2.1,6-4.13,8.84-5.86,1.41-.88,2.75-1.76,4.08-2.54l3.84-2.23c2.42-1.45,4.71-2.59,6.69-3.65,1-.52,1.91-1,2.78-1.44l2.37-1.12,3.3-1.53.87-.39A1.36,1.36,0,0,1,419.17,187.13Z" style="fill: rgb(224, 224, 224); transform-origin: 370.28px 225.29px;" id="el989joa3sk4" class="animable"></path><path d="M413.81,209.88a4.92,4.92,0,0,1-1.38.11l-3.75.1c-3.17.07-7.55.18-12.38.36s-9.21.44-12.36.68l-3.74.3a5.67,5.67,0,0,1-1.39,0,6.1,6.1,0,0,1,1.35-.3c.88-.15,2.15-.33,3.73-.51,3.16-.36,7.54-.67,12.38-.87s9.23-.22,12.4-.17c1.59,0,2.88.06,3.76.11A6.21,6.21,0,0,1,413.81,209.88Z" style="fill: rgb(224, 224, 224); transform-origin: 396.31px 210.515px;" id="elv6imo0r7kkl" class="animable"></path><path d="M395.72,186.1c.16.07-1.44,4.39-3.59,9.65s-4,9.47-4.19,9.41,1.44-4.39,3.59-9.66S395.55,186,395.72,186.1Z" style="fill: rgb(224, 224, 224); transform-origin: 391.828px 195.629px;" id="el8zzyiy6tmde" class="animable"></path><path d="M402.5,229.9a9.48,9.48,0,0,1-1.73.25c-1.12.09-2.75.17-4.77.19-4,0-9.57-.22-15.69-.62s-11.65-.89-15.65-1.23l-4.73-.41a8.73,8.73,0,0,1-1.74-.22,10.52,10.52,0,0,1,1.75,0c1.13,0,2.75.1,4.76.21,4,.23,9.54.63,15.66,1s11.64.72,15.65.81c2,0,3.62,0,4.74,0A7.89,7.89,0,0,1,402.5,229.9Z" style="fill: rgb(224, 224, 224); transform-origin: 380.345px 229.082px;" id="eltfbih7kv3m" class="animable"></path><path d="M376.22,188.31a5.62,5.62,0,0,1-.22,1.31c-.19.83-.49,2-.88,3.51-.78,2.94-1.93,7-3.23,11.46s-2.43,8.35-3.33,11.43c-.39,1.35-.72,2.51-1,3.46a4.71,4.71,0,0,1-.43,1.26,5.76,5.76,0,0,1,.19-1.32c.16-.83.43-2,.8-3.52.73-3,1.85-7,3.15-11.49s2.52-8.5,3.41-11.41c.42-1.35.78-2.5,1.07-3.45A5.35,5.35,0,0,1,376.22,188.31Z" style="fill: rgb(224, 224, 224); transform-origin: 371.675px 204.525px;" id="elg5tuzyad3wu" class="animable"></path><path d="M353,209a27,27,0,0,1-.51,4c-.38,2.44-.91,5.82-1.44,9.55s-.95,7.13-1.26,9.58a27.19,27.19,0,0,1-.61,4,22.66,22.66,0,0,1,.15-4c.2-2.47.55-5.87,1.08-9.62s1.13-7.12,1.63-9.55A21.52,21.52,0,0,1,353,209Z" style="fill: rgb(224, 224, 224); transform-origin: 351.075px 222.565px;" id="el531c98zyd9" class="animable"></path><path d="M370,247.38a26.5,26.5,0,0,1-4-.51l-9.5-1.48L347,244a26.19,26.19,0,0,1-3.94-.68,23.48,23.48,0,0,1,4,.23c2.45.23,5.84.63,9.56,1.19s7.07,1.17,9.48,1.67A23.87,23.87,0,0,1,370,247.38Z" style="fill: rgb(224, 224, 224); transform-origin: 356.53px 245.345px;" id="el157lpozu5ud" class="animable"></path><path d="M232.9,112.63c3.42-1.69,6.28-2.85,9.36-7.78,1.56-2.5,1.83-6.51,1.84-8.58.05-9.93.51-18.47-1.39-28.25h0l-2.13,6.12h0a24,24,0,0,0-3-13.88h0l-1.7,5.14h0a42.39,42.39,0,0,0-9.52-19.5h0L227.1,54h0a33.14,33.14,0,0,0-13.77-18.6h0A13.91,13.91,0,0,0,214.77,43h0A45.63,45.63,0,0,0,200.49,27.8h0l1.06,7.28h0A20.68,20.68,0,0,0,186,27h0l3.8,4.2h0a29.44,29.44,0,0,0-23-3.45h0q3,6,6,12h0a4.37,4.37,0,0,0-4.63.08h0l7.85,14.2h0L172.07,53h0a52.18,52.18,0,0,0,9,22h0l-5.39-.89h0a48.56,48.56,0,0,0,14.89,22.8h0a1.53,1.53,0,0,0-1.5,1c-.32,1.27.58,2.52,1.45,3.51,5.94,6.79,14.38,11.45,22.89,13.89,0,0,8.33,2.91,14.72.32A22.21,22.21,0,0,0,232.9,112.63Z" style="fill: rgb(235, 235, 235); transform-origin: 205.492px 71.7427px;" id="elzctdvogmklb" class="animable"></path><path d="M184.14,36.33s.08.05.22.18.35.34.58.58l2.22,2.25L188.75,41l1.81,2c1.28,1.46,2.79,3.09,4.32,5,.77,1,1.58,2,2.43,3s1.66,2.17,2.53,3.32c1.78,2.27,3.52,4.82,5.39,7.46,3.65,5.37,7.44,11.41,11.16,17.9,7.38,13,13.19,25.28,17.31,34.17,2.06,4.44,3.69,8.06,4.81,10.56l1.26,2.89c.13.31.24.55.32.76a.94.94,0,0,1,.09.26s-.06-.07-.14-.24-.23-.43-.38-.73l-1.37-2.84c-1.19-2.52-2.89-6.09-5-10.48-4.23-8.84-10.09-21-17.45-34-3.71-6.48-7.48-12.51-11.09-17.88-1.86-2.65-3.58-5.2-5.34-7.48-.86-1.15-1.67-2.28-2.5-3.33l-2.39-3c-1.5-1.94-3-3.58-4.25-5.06l-1.77-2L187,39.5l-2.13-2.33-.55-.62A1.29,1.29,0,0,1,184.14,36.33Z" style="fill: rgb(224, 224, 224); transform-origin: 212.16px 82.325px;" id="el5ojv64wtxnf" class="animable"></path><path d="M181.52,56.45a4.58,4.58,0,0,1,1.17.3c.73.23,1.79.58,3.09,1,2.59.93,6.14,2.3,10,3.94s7.33,3.24,9.78,4.51c1.23.62,2.21,1.16,2.87,1.56a5,5,0,0,1,1,.66c0,.08-1.56-.69-4.06-1.84s-6-2.7-9.83-4.34-7.38-3.06-9.94-4.09l-3-1.23A5,5,0,0,1,181.52,56.45Z" style="fill: rgb(224, 224, 224); transform-origin: 195.475px 62.4378px;" id="el024ho5kdb75w" class="animable"></path><path d="M203.51,42.68A68.39,68.39,0,0,1,204,51.6c.13,4.93.11,8.93-.06,8.94s-.41-4-.54-8.92S203.34,42.68,203.51,42.68Z" style="fill: rgb(224, 224, 224); transform-origin: 203.709px 51.61px;" id="ele6gvtrw1rh4" class="animable"></path><path d="M184.57,76.16a8.45,8.45,0,0,1,1.42.53c.91.36,2.22.86,3.86,1.44,3.29,1.15,7.88,2.59,13,4.14s9.71,2.91,13,4c1.67.52,3,1,3.93,1.29a7.6,7.6,0,0,1,1.4.57,7.05,7.05,0,0,1-1.47-.34l-4-1.11c-3.35-1-8-2.26-13.08-3.8s-9.67-3-12.93-4.31c-1.63-.63-2.93-1.2-3.81-1.62A7,7,0,0,1,184.57,76.16Z" style="fill: rgb(224, 224, 224); transform-origin: 202.875px 82.145px;" id="el5kqrons6q0m" class="animable"></path><path d="M218.66,50.45a4.59,4.59,0,0,1,0,1.16l-.18,3.12c-.17,2.64-.41,6.29-.72,10.31s-.65,7.67-1,10.3c-.16,1.32-.32,2.38-.44,3.11a4.26,4.26,0,0,1-.26,1.12,38.74,38.74,0,0,1,.27-4.27c.22-2.8.49-6.36.8-10.3s.62-7.67.89-10.3c.14-1.32.27-2.38.37-3.12A4.48,4.48,0,0,1,218.66,50.45Z" style="fill: rgb(224, 224, 224); transform-origin: 217.378px 65.01px;" id="el101fzs2g62ug" class="animable"></path><path d="M231.16,74.38a18.17,18.17,0,0,1-.4,3.46c-.34,2.13-.88,5-1.6,8.26s-1.48,6.08-2.08,8.14a17.81,17.81,0,0,1-1.12,3.3,21.85,21.85,0,0,1,.71-3.41l1.9-8.17c.67-3.1,1.28-5.91,1.77-8.19A23.48,23.48,0,0,1,231.16,74.38Z" style="fill: rgb(224, 224, 224); transform-origin: 228.56px 85.96px;" id="el6d4ghs9hwor" class="animable"></path><path d="M205.61,100.33a18.11,18.11,0,0,1,3.45.4c2.11.33,5,.86,8.21,1.54s6.06,1.4,8.13,2a18.22,18.22,0,0,1,3.3,1.05,21.06,21.06,0,0,1-3.4-.64l-8.15-1.79L209,101.14A21,21,0,0,1,205.61,100.33Z" style="fill: rgb(224, 224, 224); transform-origin: 217.155px 102.825px;" id="el06rdbcn1ulox" class="animable"></path><ellipse cx="249.57" cy="442.97" rx="65.17" ry="10.74" style="fill: rgb(235, 235, 235); transform-origin: 249.57px 442.97px;" id="el8ur75crk9nd" class="animable"></ellipse></g><g id="freepik--Table--inject-44" class="animable animator-active animator-hidden" style="transform-origin: 250px 398.525px;"><path d="M483.77,398.52c0,.15-104.67.27-233.76.27s-233.78-.12-233.78-.27,104.65-.26,233.78-.26S483.77,398.38,483.77,398.52Z" style="fill: rgb(38, 50, 56); transform-origin: 250px 398.525px;" id="elifzz4tmogc9" class="animable"></path></g><g id="freepik--Limes--inject-44" class="animable" style="transform-origin: 264.755px 348.434px;"><path d="M103.46,315.52l91.5,68a2.64,2.64,0,0,1,0,4.25c-7.72,5.59-28.64,20.41-35.05,21.21-7.08.89-24.88-1.79-28.51-2.36a2.7,2.7,0,0,1-1.19-.51L107,388.48l-14.7-12.37a2.63,2.63,0,0,1-.93-1.87l-.93-17.65L89.7,338a2.64,2.64,0,0,1,.25-1.23l9.55-20.26A2.64,2.64,0,0,1,103.46,315.52Z" style="fill: rgb(0, 255, 136); transform-origin: 142.866px 362.08px;" id="elfdbkyvvokno" class="animable"></path><g id="el95tq1vzbz3q"><g style="opacity: 0.4; transform-origin: 142.866px 362.08px;" class="animable"><path d="M103.46,315.52l91.5,68a2.64,2.64,0,0,1,0,4.25c-7.72,5.59-28.64,20.41-35.05,21.21-7.08.89-24.88-1.79-28.51-2.36a2.7,2.7,0,0,1-1.19-.51L107,388.48l-14.7-12.37a2.63,2.63,0,0,1-.93-1.87l-.93-17.65L89.7,338a2.64,2.64,0,0,1,.25-1.23l9.55-20.26A2.64,2.64,0,0,1,103.46,315.52Z" style="fill: rgb(255, 255, 255); transform-origin: 142.866px 362.08px;" id="el5xcoguez2zq" class="animable"></path></g></g><path d="M137.44,344.61,111.7,325.05a5.15,5.15,0,0,0-8,2.41L98,344a5.08,5.08,0,0,0,5.06,6.73l33-1.7A2.45,2.45,0,0,0,137.44,344.61Z" style="fill: rgb(0, 255, 136); transform-origin: 118.079px 337.363px;" id="elfpd00afz97a" class="animable"></path><path d="M99.22,364a59.59,59.59,0,0,0,12.11,16.76c3.69,3.39,7.28,1.24,9.14-1l18.58-21.89a2.14,2.14,0,0,0-1.75-3.52l-34.29,2C100,356.55,97.58,361.47,99.22,364Z" style="fill: rgb(0, 255, 136); transform-origin: 119.124px 368.435px;" id="elg3hxwv6y2tg" class="animable"></path><path d="M157.66,359.48,179,376.4a7.09,7.09,0,0,1-.55,11.49l-13.6,8.83a5.07,5.07,0,0,1-7.61-3.59l-4.72-30.81A3.15,3.15,0,0,1,157.66,359.48Z" style="fill: rgb(0, 255, 136); transform-origin: 167.083px 378.092px;" id="el7s31n2irzll" class="animable"></path><path d="M144.56,398.3a78.75,78.75,0,0,1-18.86-7c-4.81-2.35-4.08-6.07-2.24-8.35L143,360.53a2.79,2.79,0,0,1,5,1.31l4.33,29.46C153.46,396.68,147.37,399.4,144.56,398.3Z" style="fill: rgb(0, 255, 136); transform-origin: 137.261px 378.977px;" id="eluhjg11j1dv" class="animable"></path><path d="M100.88,313.6l4.5,3.22s-34.75,41.4,10.51,74,77.85-8.19,77.85-8.19l4.08,3s-37.63,53.9-90.3,18C61.71,372.47,100.88,313.6,100.88,313.6Z" style="fill: rgb(0, 255, 136); transform-origin: 141.552px 364.781px;" id="el6ut4jiumvhx" class="animable"></path><g id="elt0d50a62nl"><g style="opacity: 0.3; transform-origin: 139.143px 375.615px;" class="animable"><path d="M193,391.49c-14.28,12.39-44.37,30.6-79.82,5.95C84.94,377.78,85.09,353,90.41,335.23c-7.14,20-10.88,49.38,17.11,68.46C149.12,432,181.33,404.37,193,391.49Z" id="el9dwqvncys3" class="animable" style="transform-origin: 139.143px 375.615px;"></path></g></g><path d="M425,324a.81.81,0,0,1,.39-.75,78.59,78.59,0,0,0,13.29-9.84l4.12-4a.81.81,0,0,1,1.35.32,1.86,1.86,0,0,1-.2,1.5c-.83,1.48-15,13.68-17.1,14.33C425.33,326,425,324.71,425,324Z" style="fill: rgb(174, 116, 97); transform-origin: 434.612px 317.408px;" id="ele8t9z5aph9g" class="animable"></path><path d="M430.87,345.89c-.68-6-3.83-11.66-1.74-17.9a2.08,2.08,0,0,0-.06-1.23L425,321.25a4.16,4.16,0,0,0-4.12-1.92c-2.41.08-3.89-1.25-5.58-2.75a48.44,48.44,0,0,0-25.86-11.79,70.56,70.56,0,0,0-25.07,1,89.61,89.61,0,0,0-27.49,10.9A104.39,104.39,0,0,0,308.67,342a62.21,62.21,0,0,0-12.84,29.21,49.41,49.41,0,0,0,2.38,23.94c1.09,3.12,1.46,6.05-.23,9.28-2.14,4.08-.66,9.79,3,11.48a15.24,15.24,0,0,0,7.27,1,10.87,10.87,0,0,1,7.73,2.35,53.06,53.06,0,0,0,22.84,9.93,70.69,70.69,0,0,0,27.85-.8,91.29,91.29,0,0,0,23-8.9A81.22,81.22,0,0,0,426,380.28,65.22,65.22,0,0,0,430.87,345.89Z" style="fill: rgb(0, 255, 136); transform-origin: 363.355px 367.158px;" id="el13kinyo7mgt" class="animable"></path><path d="M386.36,266.61s3.11,22.71,20.91,33.84,29.11,9.83,29.11,9.83-.81-18.87-15.27-30.35C403,265.57,386.36,266.61,386.36,266.61Z" style="fill: rgb(69, 90, 100); transform-origin: 411.37px 288.46px;" id="elmofiyc5kflp" class="animable"></path><path d="M406.56,281.08a11.2,11.2,0,0,1,1.49,1c.94.68,2.27,1.71,3.9,3a152.65,152.65,0,0,1,22.93,23c1.3,1.63,2.32,3,3,3.91a11.27,11.27,0,0,1,1,1.5,12,12,0,0,1-1.18-1.37c-.73-.91-1.8-2.21-3.13-3.8-2.67-3.18-6.47-7.49-10.94-12s-8.77-8.29-11.94-11c-1.59-1.34-2.89-2.41-3.79-3.14A11.29,11.29,0,0,1,406.56,281.08Z" style="fill: rgb(38, 50, 56); transform-origin: 422.72px 297.285px;" id="el1btimxsh3n6" class="animable"></path><g id="elv5ybvsux98"><g style="opacity: 0.3; transform-origin: 376.119px 382.937px;" class="animable"><path d="M389.69,419.56A81.22,81.22,0,0,0,426,380.28a65.22,65.22,0,0,0,4.84-34.39c-.4-3.46-1.62-6.84-2.17-10.29-2.42,15.31-11.24,36-22.14,49.12-27.29,32.88-54.15,40.75-85.68,37.85a50.87,50.87,0,0,0,17.94,6.69,70.69,70.69,0,0,0,27.85-.8A91.29,91.29,0,0,0,389.69,419.56Z" id="el4abu5806kpy" class="animable" style="transform-origin: 376.119px 382.937px;"></path></g></g><g id="elx84dubrvy1"><g style="opacity: 0.3; transform-origin: 352.258px 363.333px;" class="animable"><path d="M352,361.41l-.53.15a1.94,1.94,0,1,0,.53-.15Z" id="eliw1ixez0owl" class="animable" style="transform-origin: 352.258px 363.333px;"></path></g></g><g id="el2e8uyq2nlir"><g style="opacity: 0.3; transform-origin: 363.485px 384.724px;" class="animable"><path d="M363.23,382.74l-.52.14a2,2,0,1,0,.52-.14Z" id="elyf40q0eoh5q" class="animable" style="transform-origin: 363.485px 384.724px;"></path></g></g><g id="eltcr3xe9z6nd"><g style="opacity: 0.3; transform-origin: 378.891px 358.175px;" class="animable"><path d="M378.65,356.19l-.53.14a2,2,0,1,0,.53-.14Z" id="elvgd7t5oi4ar" class="animable" style="transform-origin: 378.891px 358.175px;"></path></g></g><g id="elgmh73u17t8"><g style="opacity: 0.3; transform-origin: 335.117px 367.999px;" class="animable"><path d="M334.94,366.61l-.37.1a1.4,1.4,0,1,0,.37-.1Z" id="el27rfpxte617" class="animable" style="transform-origin: 335.117px 367.999px;"></path></g></g><g id="el9b70erur5vi"><g style="opacity: 0.3; transform-origin: 349.583px 377.851px;" class="animable"><path d="M349.42,376.46l-.38.1a1.4,1.4,0,1,0,.38-.1Z" id="elyd23sdz4je" class="animable" style="transform-origin: 349.583px 377.851px;"></path></g></g><g id="eln8q4haxjuf"><g style="opacity: 0.3; transform-origin: 367.745px 370.32px;" class="animable"><path d="M367.58,368.92l-.38.1a1.41,1.41,0,1,0,.38-.1Z" id="elruh42bwn1v" class="animable" style="transform-origin: 367.745px 370.32px;"></path></g></g><g id="elhtse56e97u"><g style="opacity: 0.3; transform-origin: 342.055px 392.76px;" class="animable"><path d="M341.89,391.36l-.38.1a1.41,1.41,0,1,0,.38-.1Z" id="elwxsos028a9" class="animable" style="transform-origin: 342.055px 392.76px;"></path></g></g><g id="el0sa5954n6kbg"><g style="opacity: 0.3; transform-origin: 381.355px 317.881px;" class="animable"><path d="M384.14,308.89a50.42,50.42,0,0,0-29.48,7.68,10.34,10.34,0,0,0-3.3,2.93,4,4,0,0,0-.23,4.21c.94,1.45,2.88,1.8,4.6,2a201.29,201.29,0,0,0,44,.05c4.66-.51,9.93-1.57,12.34-5.6C410.88,313.93,394.45,309.46,384.14,308.89Z" style="fill: rgb(255, 255, 255); transform-origin: 381.355px 317.881px;" id="elpucssnvs7k" class="animable"></path></g></g></g><g id="freepik--Mojito--inject-44" class="animable" style="transform-origin: 273.07px 271.49px;"><path d="M147,144.4l33.34,286.66A13.46,13.46,0,0,0,193.68,443H306.37a13.47,13.47,0,0,0,13.33-11.56l41-287Z" style="fill: rgb(245, 245, 245); transform-origin: 253.85px 293.7px;" id="elirjq3zep2qk" class="animable"></path><path d="M147,144.4l213.77-.22H361l0,.26c-10.45,73.18-23,161.08-36.49,255.51Q322.73,412,321,424q-.43,3-.85,6a28.8,28.8,0,0,1-.52,3,13.74,13.74,0,0,1-10.46,10c-.49.13-1,.15-1.49.24s-1,.05-1.51.06h-111c-.9,0-1.81,0-2.73-.06-.45-.06-.91-.12-1.36-.2s-.9-.19-1.33-.33a13.81,13.81,0,0,1-8.19-6.77,14.22,14.22,0,0,1-1.51-5.15c-6.5-56.12-12.36-106.65-17.27-149.09C153,196.9,147.14,145.86,147,144.4c.17,1.46,6.18,52.54,16.15,137.34,4.95,42.39,10.84,92.86,17.39,148.91a14,14,0,0,0,1.46,5,13.35,13.35,0,0,0,7.9,6.52c.42.14.86.21,1.29.32s.87.13,1.31.19c.87.06,1.77.07,2.68.06H303.23a28.61,28.61,0,0,0,5.87-.29,13.23,13.23,0,0,0,9-6.87,12.59,12.59,0,0,0,1-2.74,27.36,27.36,0,0,0,.51-2.92q.44-3,.85-6,1.71-11.94,3.44-24c13.52-94.44,26.1-182.33,36.58-255.5l.22.25Z" style="fill: rgb(38, 50, 56); transform-origin: 254px 293.74px;" id="elr2x39829sx" class="animable"></path><path d="M157.65,144.58l30.62,263.27a6,6,0,0,0,6,5.31h112.2a6,6,0,0,0,5.93-5.15L350.05,144.4Z" style="fill: rgb(235, 235, 235); transform-origin: 253.85px 278.78px;" id="el1qvu6dut22q" class="animable"></path><path d="M305.93,413.16c0,.14-25.24.26-56.36.26s-56.36-.12-56.36-.26,25.23-.27,56.36-.27S305.93,413,305.93,413.16Z" style="fill: rgb(38, 50, 56); transform-origin: 249.57px 413.155px;" id="ele5g8lzeanj6" class="animable"></path><path d="M193.51,422.39l1.18,9.61a2.83,2.83,0,0,0,2.8,2.47H300.73a4.55,4.55,0,0,0,4.49-3.79l1.4-8.11a3.86,3.86,0,0,0-3.8-4.51H197.33A3.86,3.86,0,0,0,193.51,422.39Z" style="fill: rgb(255, 255, 255); transform-origin: 250.078px 426.265px;" id="elg7c1hxxz3bv" class="animable"></path><path d="M174.78,291.72c.14,0,3,22.68,6.3,50.7s5.93,50.74,5.78,50.76-3-22.68-6.31-50.7S174.63,291.73,174.78,291.72Z" style="fill: rgb(38, 50, 56); transform-origin: 180.82px 342.45px;" id="eleu2tdjv54v" class="animable"></path><path d="M162.07,185l26.5,222.59a6.36,6.36,0,0,0,6.31,5.6H306.71a5.45,5.45,0,0,0,5.39-4.69l33-231.45Z" style="fill: rgb(0, 255, 136); transform-origin: 253.585px 295.12px;" id="el6teijndvck3" class="animable"></path><g id="el0t37lcg0gecr"><g style="opacity: 0.2; transform-origin: 226.436px 277.967px;" class="animable"><path d="M215.19,254.38a7.47,7.47,0,0,0-7.93,5c-3.06,8.84-8.45,25.13-7.4,27.16s8.52,9.29,12.41,13a7.46,7.46,0,0,0,5.59,2.05l21.34-1.23a7.49,7.49,0,0,0,6.67-5.11l6.89-20.67a7.48,7.48,0,0,0-2.74-8.45L238.76,258a7.62,7.62,0,0,0-3.51-1.36Z" style="fill: rgb(255, 255, 255); transform-origin: 226.436px 277.967px;" id="elzxznmcebgl" class="animable"></path></g></g><path d="M222.37,269.17c.51.16-1.28,6.32-3.81,13.71s-3.59,13.6-4.14,13.53-.23-6.57,2.36-14.11S221.89,269,222.37,269.17Z" style="fill: rgb(255, 255, 255); transform-origin: 218.325px 282.788px;" id="elf0tgfxmr128" class="animable"></path><path d="M222.37,268.21c-.47.28-2.47-2.42-5.64-4.93s-6.21-3.93-6-4.45,3.76.19,7.21,3S222.81,268,222.37,268.21Z" style="fill: rgb(255, 255, 255); transform-origin: 216.584px 263.451px;" id="eldq6kya8xk3d" class="animable"></path><path d="M246.09,271.16c-.16.23-1.16-.26-2.88-.2s-4.08.91-7.29.49c-3.22-.75-5-2.6-6.63-2.92-1.61-.5-2.64-.06-2.78-.29s.91-1.25,3-1,4.39,1.92,6.71,2.37,5.09-.36,7.07,0S246.26,271,246.09,271.16Z" style="fill: rgb(255, 255, 255); transform-origin: 236.303px 269.383px;" id="elubgs76r2hko" class="animable"></path><g id="el4d0f8nti7ac"><g style="opacity: 0.4; transform-origin: 254.335px 205.522px;" class="animable"><path d="M229.58,199.93c4.55,1.71,7.76,7,11.8,9.74s12.4,5.14,17.25,4.79c3.75-.28,7.88-3.63,10.46-7,4.06-5.29,5.28-6.25,10-10.91Z" style="fill: rgb(255, 255, 255); transform-origin: 254.335px 205.522px;" id="eltw8vegvowv" class="animable"></path></g></g><path d="M162.07,184.6c5.44-9,13.75-13.51,24.35-14.1s21.06,2.23,31.29,5,20.68,5.64,31.28,5.09c11.18-.58,21.75-4.88,32.55-7.79a132.88,132.88,0,0,1,39.85-4.43c9,.38,17.74,2,23.78,8.61-30.82,1.55-56.44,21.74-86.63,28.08-33,6.93-68.66-.84-96.47-19.64" style="fill: rgb(0, 255, 136); transform-origin: 253.62px 187.91px;" id="el2d1lvt3j73w" class="animable"></path><g id="elbx212rmr0rw"><g style="opacity: 0.4; transform-origin: 287.245px 352.661px;" class="animable"><path d="M312.11,371.51l3.38-36.37a4.54,4.54,0,0,0-2.73-4.74l-18.39-7.28a4.15,4.15,0,0,0-2.24-.23L265,327.44a5,5,0,0,0-4,4.6c-.15,2.09-.34,4.87-.55,8l-1.2,19.61c-.28,5.56-.4,9.73-.14,10.06,1,1.32,14.43,9.48,18.93,12.19a4.19,4.19,0,0,0,3.12.48L308.39,376A5,5,0,0,0,312.11,371.51Z" style="fill: rgb(255, 255, 255); transform-origin: 287.245px 352.661px;" id="elzoal188750s" class="animable"></path></g></g><path d="M282.35,339.51c-.2.36-4-1.3-8.4-3.71s-7.88-4.68-7.68-5.05,4,1.3,8.4,3.71S282.55,339.14,282.35,339.51Z" style="fill: rgb(255, 255, 255); transform-origin: 274.31px 335.129px;" id="el1ghi1q6gjqb" class="animable"></path><path d="M306.91,334.77c.11.4-3,1.64-7,2.78s-7.32,1.72-7.43,1.32,3-1.65,7-2.78S306.8,334.36,306.91,334.77Z" style="fill: rgb(255, 255, 255); transform-origin: 299.695px 336.819px;" id="elvot1kfby2g" class="animable"></path><path d="M283.62,369.19c-.42-.08.24-5.5,1.08-12.16s1.57-12.08,2-12,.37,5.52-.49,12.24S284,369.26,283.62,369.19Z" style="fill: rgb(255, 255, 255); transform-origin: 285.225px 357.11px;" id="elytnh4d50y3" class="animable"></path><path d="M234.86,343.36c2.41-1.5,4.46-2.57,6.38-6.45,1-2,.89-5,.75-6.5-.68-7.38-1-13.75-3.07-20.87h0l-1.15,4.7h0a18,18,0,0,0-3.22-10.1h0l-.89,3.95h0a31.6,31.6,0,0,0-8.47-13.79h0l1.12,5.94h0a24.81,24.81,0,0,0-11.57-12.82h0a10.41,10.41,0,0,0,1.61,5.52h0a34.07,34.07,0,0,0-11.69-10.23h0l1.32,5.32h0a15.45,15.45,0,0,0-12.14-4.85h0l3.13,2.85h0a22,22,0,0,0-17.36-.9h0l5.3,8.52h0a3.3,3.3,0,0,0-3.43.39h0l6.86,10h0l-3-.57h0a38.93,38.93,0,0,0,8.29,15.68h0l-4.07-.27h0a36.22,36.22,0,0,0,12.71,15.85h0a1.14,1.14,0,0,0-1.05.86,3.18,3.18,0,0,0,1.33,2.5,35.91,35.91,0,0,0,18,8.65s6.39,1.57,11-.82A16.42,16.42,0,0,0,234.86,343.36Z" style="fill: rgb(69, 90, 100); transform-origin: 210.845px 314.978px;" id="elb8rfpzj3aw" class="animable"></path><path d="M193.14,290.24a4.09,4.09,0,0,1,.55.41l1.53,1.24c.66.55,1.46,1.22,2.35,2s1.94,1.73,3,2.81c2.22,2.11,4.74,4.74,7.44,7.76s5.49,6.47,8.3,10.19c5.61,7.47,10.16,14.6,13.35,19.81,1.59,2.6,2.85,4.73,3.7,6.21l1,1.71a3.24,3.24,0,0,1,.3.62,4.7,4.7,0,0,1-.4-.56l-1-1.66c-1-1.5-2.25-3.58-3.85-6.12-3.27-5.16-7.86-12.24-13.45-19.69-2.81-3.71-5.61-7.14-8.25-10.19s-5.15-5.67-7.33-7.81c-1.06-1.09-2.09-2-3-2.86s-1.65-1.54-2.29-2.1l-1.46-1.32A3.61,3.61,0,0,1,193.14,290.24Z" style="fill: rgb(38, 50, 56); transform-origin: 213.9px 316.62px;" id="elx1j5fqnvxcq" class="animable"></path><path d="M192.65,305.37a18,18,0,0,1,3.26.67c2,.49,4.74,1.25,7.73,2.19s5.68,1.88,7.59,2.65a15.35,15.35,0,0,1,3,1.4,29.51,29.51,0,0,1-3.15-1c-1.94-.68-4.63-1.56-7.62-2.5l-7.67-2.33A24.35,24.35,0,0,1,192.65,305.37Z" style="fill: rgb(38, 50, 56); transform-origin: 203.44px 308.825px;" id="el5bz0ig7otui" class="animable"></path><path d="M208,293.56a40.31,40.31,0,0,1,1.09,6.57,43.66,43.66,0,0,1,.56,6.65,41.93,41.93,0,0,1-1.09-6.58A43.57,43.57,0,0,1,208,293.56Z" style="fill: rgb(38, 50, 56); transform-origin: 208.825px 300.17px;" id="elxtdxxt3zjw9" class="animable"></path><path d="M196.34,319.79a4.21,4.21,0,0,1,1.1.27c.69.19,1.71.47,3,.77,2.52.61,6,1.35,9.92,2.13s7.42,1.46,10,2c1.27.27,2.3.51,3,.69a4.36,4.36,0,0,1,1.09.34,5.45,5.45,0,0,1-1.13-.14l-3-.52c-2.56-.46-6.1-1.09-10-1.86s-7.41-1.58-9.92-2.28c-1.25-.36-2.26-.69-2.94-.94A4.53,4.53,0,0,1,196.34,319.79Z" style="fill: rgb(38, 50, 56); transform-origin: 210.395px 322.89px;" id="el80isq5l8jxr" class="animable"></path><path d="M219.79,298.23a22.49,22.49,0,0,1,.21,3.19c.07,2,.16,4.7.22,7.71s.07,5.74,0,7.71A16.13,16.13,0,0,1,220,320a24.69,24.69,0,0,1-.13-3.2c-.05-2.13-.11-4.78-.17-7.7s-.09-5.74-.07-7.71A17.42,17.42,0,0,1,219.79,298.23Z" style="fill: rgb(38, 50, 56); transform-origin: 219.942px 309.115px;" id="elfrxsil6ung7" class="animable"></path><path d="M230.8,315.09a12.16,12.16,0,0,1,0,2.61c-.09,1.6-.28,3.81-.58,6.24s-.66,4.62-1,6.2a12.2,12.2,0,0,1-.61,2.53,12.42,12.42,0,0,1,.24-2.59c.24-1.78.51-3.88.81-6.2s.53-4.44.74-6.22A13.74,13.74,0,0,1,230.8,315.09Z" style="fill: rgb(38, 50, 56); transform-origin: 229.74px 323.88px;" id="elxi7gvloelym" class="animable"></path><path d="M213.71,336.21a12.68,12.68,0,0,1,2.67,0c1.65.09,3.92.28,6.42.57s4.76.62,6.39.9a13,13,0,0,1,2.61.59,14.37,14.37,0,0,1-2.67-.21l-6.39-.75-6.39-.72A14.56,14.56,0,0,1,213.71,336.21Z" style="fill: rgb(38, 50, 56); transform-origin: 222.755px 337.206px;" id="eljmzpoky9c8" class="animable"></path><g id="el3swk9d3yfya"><g style="opacity: 0.4; transform-origin: 210.845px 314.978px;" class="animable"><path d="M234.86,343.36c2.41-1.5,4.46-2.57,6.38-6.45,1-2,.89-5,.75-6.5-.68-7.38-1-13.75-3.07-20.87h0l-1.15,4.7h0a18,18,0,0,0-3.22-10.1h0l-.89,3.95h0a31.6,31.6,0,0,0-8.47-13.79h0l1.12,5.94h0a24.81,24.81,0,0,0-11.57-12.82h0a10.41,10.41,0,0,0,1.61,5.52h0a34.07,34.07,0,0,0-11.69-10.23h0l1.32,5.32h0a15.45,15.45,0,0,0-12.14-4.85h0l3.13,2.85h0a22,22,0,0,0-17.36-.9h0l5.3,8.52h0a3.3,3.3,0,0,0-3.43.39h0l6.86,10h0l-3-.57h0a38.93,38.93,0,0,0,8.29,15.68h0l-4.07-.27h0a36.22,36.22,0,0,0,12.71,15.85h0a1.14,1.14,0,0,0-1.05.86,3.18,3.18,0,0,0,1.33,2.5,35.91,35.91,0,0,0,18,8.65s6.39,1.57,11-.82A16.42,16.42,0,0,0,234.86,343.36Z" style="fill: rgb(0, 255, 136); transform-origin: 210.845px 314.978px;" id="el06u1wkfg474" class="animable"></path></g></g><path d="M222.4,281.92c-.39,1.15-34,53.06,13.43,79s74.55-18.19,74.55-18.19Z" style="fill: rgb(0, 255, 136); transform-origin: 260.432px 325.505px;" id="el56rxv503052" class="animable"></path><g id="el0wyvthr0i83"><g style="opacity: 0.7; transform-origin: 262.454px 324.233px;" class="animable"><path d="M305.82,339.7l-78.14-54.05s-26.33,50.42,13.2,71S305.82,339.7,305.82,339.7Z" style="fill: rgb(255, 255, 255); transform-origin: 262.454px 324.233px;" id="el523frwyyjft" class="animable"></path></g></g><path d="M296.11,342.9c.27-2.23-1.47-4.16-3.11-5.7a207.35,207.35,0,0,0-24.23-19.62l-.92.83a85.26,85.26,0,0,0,5,27.15c1,2.76,2.42,5.75,5.18,6.74,2.06.74,4.34.15,6.38-.62a36.8,36.8,0,0,0,8.39-4.48C294.35,346.13,295.89,344.75,296.11,342.9Z" style="fill: rgb(0, 255, 136); transform-origin: 281.994px 335.11px;" id="el7yklbandbmw" class="animable"></path><path d="M268.75,355.72c1.56-1.63,1.3-4.22.91-6.43A205.52,205.52,0,0,0,262,319.08l-1.23.12A84.75,84.75,0,0,0,248.54,344c-.85,2.81-1.49,6.06.13,8.51,1.21,1.81,3.39,2.71,5.48,3.31a37.47,37.47,0,0,0,9.41,1.42C265.42,357.26,267.47,357.07,268.75,355.72Z" style="fill: rgb(0, 255, 136); transform-origin: 258.813px 338.161px;" id="elc7dwbnkk3o" class="animable"></path><path d="M237.82,345.47c2.25-.08,3.88-2.1,5.15-4a206.23,206.23,0,0,0,15.63-27l-1-.78a85.11,85.11,0,0,0-26,9.18c-2.57,1.41-5.3,3.28-5.85,6.16-.41,2.15.52,4.31,1.6,6.21a37.48,37.48,0,0,0,5.72,7.6C234.36,344.23,236,345.54,237.82,345.47Z" style="fill: rgb(0, 255, 136); transform-origin: 242.126px 329.581px;" id="elqmyxx3taxyc" class="animable"></path><path d="M258.36,310.5a69.11,69.11,0,0,0-19.93-14c-2.42-1.1-5.32-2.08-8.05-1a10.25,10.25,0,0,0-4.57,4.26c-1.63,2.5-1.59,5.42-1.76,8.52a8.58,8.58,0,0,0,1.88,4.89c1.14,1.54,4.08,1.34,6.28,1.3,10.13-.19,15.76-1.34,25.94-2.9Z" style="fill: rgb(0, 255, 136); transform-origin: 241.205px 304.766px;" id="el7fveqbpvsf6" class="animable"></path><g id="elax639cq7c1"><g style="opacity: 0.3; transform-origin: 257.873px 340.395px;" class="animable"><path d="M257.31,345.73c-.19,0-.08-2.61.23-5.78.21-2.09.45-3.91.64-4.89h.35c0,.54-.06.85-.12.86s-.14-.3-.23-.84h.35c0,1-.12,2.84-.32,4.92C257.89,343.19,257.49,345.75,257.31,345.73Z" style="fill: rgb(255, 255, 255); transform-origin: 257.873px 340.395px;" id="el9pkn10rdio9" class="animable"></path></g></g><g id="elhwc8jkjd9bm"><g style="opacity: 0.3; transform-origin: 260.615px 338.92px;" class="animable"><path d="M260.22,344.31c-.18,0-.16-2.44.06-5.42s.54-5.38.73-5.36.15,2.43-.06,5.41S260.41,344.32,260.22,344.31Z" style="fill: rgb(255, 255, 255); transform-origin: 260.615px 338.92px;" id="el8uz92cdsiw" class="animable"></path></g></g><g id="elizfhceav5r"><g style="opacity: 0.3; transform-origin: 277.325px 338.865px;" class="animable"><path d="M278.47,341.9c-.17.07-.83-1.24-1.46-2.92s-1-3.09-.83-3.15.83,1.24,1.46,2.92S278.64,341.84,278.47,341.9Z" style="fill: rgb(255, 255, 255); transform-origin: 277.325px 338.865px;" id="eljj78q8uw9jg" class="animable"></path></g></g><g id="elw9ct63bklv"><g style="opacity: 0.3; transform-origin: 282.475px 337.983px;" class="animable"><path d="M286.23,342.76c-.14.11-2-1.92-4-4.55s-3.66-4.84-3.51-5,1.95,1.92,4,4.55S286.38,342.64,286.23,342.76Z" style="fill: rgb(255, 255, 255); transform-origin: 282.475px 337.983px;" id="elbjrwljnd8q6" class="animable"></path></g></g><g id="elgqtg3tx8g5f"><g style="opacity: 0.3; transform-origin: 241.199px 325.865px;" class="animable"><path d="M238.81,328c-.11-.16,1-1.09,2.28-2.27s2.35-2.16,2.49-2-.7,1.33-2,2.54S238.91,328.13,238.81,328Z" style="fill: rgb(255, 255, 255); transform-origin: 241.199px 325.865px;" id="elfqfe7zh092" class="animable"></path></g></g><g id="elocwncavqhjj"><g style="opacity: 0.3; transform-origin: 244.39px 328.185px;" class="animable"><path d="M239.94,332.76c-.13-.13,1.75-2.28,4.21-4.81s4.56-4.46,4.69-4.34-1.75,2.28-4.21,4.81S240.07,332.89,239.94,332.76Z" style="fill: rgb(255, 255, 255); transform-origin: 244.39px 328.185px;" id="elzxq6q4xa9lp" class="animable"></path></g></g><g id="el8phb3zjqi2"><g style="opacity: 0.3; transform-origin: 240.47px 308.565px;" class="animable"><path d="M243.63,309.42c0,.18-1.5-.06-3.25-.53s-3.12-1-3.07-1.18,1.5.06,3.25.53S243.68,309.24,243.63,309.42Z" style="fill: rgb(255, 255, 255); transform-origin: 240.47px 308.565px;" id="elasqoy1vttc4" class="animable"></path></g></g><g id="ely14rb9lks1"><g style="opacity: 0.3; transform-origin: 238.756px 304.511px;" class="animable"><path d="M242.63,305.62c-.07.17-1.77-.44-3.89-1s-3.89-1-3.86-1.17,1.86-.09,4,.53S242.71,305.46,242.63,305.62Z" style="fill: rgb(255, 255, 255); transform-origin: 238.756px 304.511px;" id="elr2eelv4wpq" class="animable"></path></g></g><g id="elo8turgnf87r"><g style="opacity: 0.3; transform-origin: 240.25px 300.46px;" class="animable"><path d="M243.1,301.59c-.07.17-1.39-.2-3-.82s-2.77-1.27-2.7-1.44,1.39.2,2.95.82S243.17,301.42,243.1,301.59Z" style="fill: rgb(255, 255, 255); transform-origin: 240.25px 300.46px;" id="elqdlbtbqnxdh" class="animable"></path></g></g><g id="el61d1rtbmlr7"><g style="opacity: 0.3; transform-origin: 215.58px 326.5px;" class="animable"><path d="M215.58,327a.48.48,0,0,0,0-1,.48.48,0,0,0,0,1Z" id="elqknaskzzjko" class="animable" style="transform-origin: 215.58px 326.5px;"></path></g></g><g id="el2zni9flsp8q"><g style="opacity: 0.3; transform-origin: 213.12px 321.08px;" class="animable"><path d="M213.12,321.58a.48.48,0,0,0,0-1,.48.48,0,0,0,0,1Z" id="el86k6hdrts4p" class="animable" style="transform-origin: 213.12px 321.08px;"></path></g></g><g id="elesxmuyl74nc"><g style="opacity: 0.3; transform-origin: 216.91px 315.5px;" class="animable"><path d="M216.91,316a.48.48,0,0,0,0-1,.48.48,0,0,0,0,1Z" id="elw6l12u8c34i" class="animable" style="transform-origin: 216.91px 315.5px;"></path></g></g><g id="el6c8ryesmpua"><g style="opacity: 0.3; transform-origin: 213.76px 311.28px;" class="animable"><path d="M213.76,311.78a.49.49,0,0,0,0-1,.49.49,0,0,0,0,1Z" id="eljvpcf2bychk" class="animable" style="transform-origin: 213.76px 311.28px;"></path></g></g><g id="elxp25mjwrgs"><g style="opacity: 0.3; transform-origin: 223.53px 347.31px;" class="animable"><path d="M223.53,347.81a.48.48,0,0,0,0-1,.48.48,0,0,0,0,1Z" id="eljfovjg460t" class="animable" style="transform-origin: 223.53px 347.31px;"></path></g></g><g id="el7x082p9nljl"><g style="opacity: 0.6; transform-origin: 260.432px 325.505px;" class="animable"><path d="M222.4,281.92c-.39,1.15-34,53.06,13.43,79s74.55-18.19,74.55-18.19Z" style="fill: rgb(0, 255, 136); transform-origin: 260.432px 325.505px;" id="elw87nzfu1gvd" class="animable"></path></g></g><path d="M391.77,114.12l1.84-1.38a14.33,14.33,0,0,0-10.86.06l2.25-1.73a28.49,28.49,0,0,0-13.84,1.63l1.83-2.19a18.56,18.56,0,0,0-11.39,4.56l1.14-2.41a24.17,24.17,0,0,0-11.32,7.22l1.07-3.12a29,29,0,0,0-12.76,10.42,3.9,3.9,0,0,0,.67-3.32,30.11,30.11,0,0,0-8.87,10.63c-.14-1.06-.28-2.12-.41-3.18A30.63,30.63,0,0,0,325.76,142c-.3-1.56-.6-3.11-.89-4.67a41.89,41.89,0,0,0-2.76,30.83,24.18,24.18,0,0,0,7.25,11.25h0c15.73-28.09,39.76-52.34,69.78-64A8.51,8.51,0,0,0,391.77,114.12Z" style="fill: rgb(69, 90, 100); transform-origin: 359.756px 144.96px;" id="elhaalcthjpe" class="animable"></path><g id="el6047g1vssin"><g style="opacity: 0.2; transform-origin: 324.879px 155.275px;" class="animable"><path d="M324.18,139.07c-1.23,1.88-1,3.54-1,5.78.07,7.35.15,13.88-2,20.9l1.87,5.73c2.5-1.62,4.25-5.18,4.9-8.08a25.56,25.56,0,0,0,.42-8.89C327.77,150.19,326.07,145.89,324.18,139.07Z" id="el32ntetat7o2" class="animable" style="transform-origin: 324.879px 155.275px;"></path></g></g><path d="M399.14,115.46a1,1,0,0,1-.3.1l-.87.24c-.77.22-1.92.47-3.37.91a114,114,0,0,0-12.11,4.15,107.46,107.46,0,0,0-16.84,8.68,99,99,0,0,0-18,14.59,67,67,0,0,0-12.79,19.22,88.85,88.85,0,0,0-5.71,18.05,126.14,126.14,0,0,0-1.89,12.66c-.13,1.48-.23,2.64-.3,3.47q-.06.56-.09.9a1.16,1.16,0,0,1-.05.31,2.46,2.46,0,0,1,0-.31c0-.24,0-.53,0-.91,0-.79.09-2,.2-3.48a116.77,116.77,0,0,1,1.73-12.72,87.74,87.74,0,0,1,5.63-18.17,66.88,66.88,0,0,1,12.86-19.39,97.85,97.85,0,0,1,18.12-14.63,104,104,0,0,1,29.16-12.62c1.46-.41,2.62-.62,3.39-.81l.89-.19Z" style="fill: rgb(38, 50, 56); transform-origin: 362.978px 157.1px;" id="el0s8ab6yiwc2" class="animable"></path><path d="M342.62,129.69c.08,0,0,1,0,2.65a56.16,56.16,0,0,0,.38,6.37,60.12,60.12,0,0,0,1,6.3,19.44,19.44,0,0,1,.55,2.6,9.82,9.82,0,0,1-.92-2.51,41.49,41.49,0,0,1-1.2-6.33,38.19,38.19,0,0,1-.23-6.44A8.38,8.38,0,0,1,342.62,129.69Z" style="fill: rgb(38, 50, 56); transform-origin: 343.352px 138.65px;" id="elywgwsrog5wk" class="animable"></path><path d="M355.48,123.25a15.62,15.62,0,0,1-.45,2.22c-.3,1.36-.64,3.25-.93,5.35-.54,4.22-.81,7.67-1,7.66a9.57,9.57,0,0,1,0-2.27c.06-1.4.2-3.33.48-5.46C354.1,126.49,355.33,123.19,355.48,123.25Z" style="fill: rgb(38, 50, 56); transform-origin: 354.256px 130.865px;" id="el3zt1s6v6k9i" class="animable"></path><path d="M375.11,116.17a18,18,0,0,1-1.82,1.89c-1.13,1.14-2.66,2.76-4.23,4.65a35.15,35.15,0,0,0-3.61,5.12c-.78,1.4-1,2.38-1.05,2.36a5.35,5.35,0,0,1,.72-2.53,26.42,26.42,0,0,1,3.53-5.29,44.57,44.57,0,0,1,4.38-4.59A10.29,10.29,0,0,1,375.11,116.17Z" style="fill: rgb(38, 50, 56); transform-origin: 369.755px 123.18px;" id="el456zoc4ihfn" class="animable"></path><path d="M332,140.67c.09,0-.24,1.2-.31,3.15a39.5,39.5,0,0,0,.54,7.62,61,61,0,0,0,1.7,7.47c.55,1.89,1,3,.93,3.05a2.68,2.68,0,0,1-.42-.75c-.23-.5-.55-1.25-.87-2.18a44.57,44.57,0,0,1-1.86-7.51,32.06,32.06,0,0,1-.4-7.72,13.38,13.38,0,0,1,.39-2.32C331.84,140.94,331.94,140.66,332,140.67Z" style="fill: rgb(38, 50, 56); transform-origin: 333.05px 151.315px;" id="elu9aalvfmp" class="animable"></path><path d="M316.17,173c2.93-1.68,5.4-2.85,7.86-7.37,1.25-2.29,1.28-5.85,1.18-7.68-.48-8.78-.52-16.36-2.71-24.91h0l-1.57,5.53h0a21.24,21.24,0,0,0-3.37-12.12h0l-1.23,4.64h0a37.49,37.49,0,0,0-9.44-16.75h0l1.07,7.09h0a29.37,29.37,0,0,0-13.16-15.72h0a12.43,12.43,0,0,0,1.67,6.63h0a40.4,40.4,0,0,0-13.42-12.66h0l1.33,6.38h0a18.32,18.32,0,0,0-14.18-6.3h0l3.58,3.52h0a26,26,0,0,0-20.55-1.84h0q2.94,5.17,5.9,10.34h0a3.9,3.9,0,0,0-4.09.32h0l7.69,12.15h0l-3.48-.8h0a46.32,46.32,0,0,0,9.14,19h0l-4.82-.5h0a43.19,43.19,0,0,0,14.37,19.38h0a1.33,1.33,0,0,0-1.27,1c-.22,1.14.64,2.19,1.46,3,5.61,5.7,13.31,9.37,21,11.08,0,0,7.52,2.14,13-.49A19.26,19.26,0,0,0,316.17,173Z" style="fill: rgb(69, 90, 100); transform-origin: 289.238px 138.456px;" id="el69m7yyzemhd" class="animable"></path><path d="M269.05,108.06l.2.15.55.48,2.07,1.88,1.49,1.36,1.71,1.69c1.21,1.23,2.63,2.59,4.08,4.21l2.31,2.51c.8.88,1.58,1.83,2.42,2.8,1.69,1.92,3.36,4.07,5.15,6.32,3.51,4.55,7.18,9.69,10.81,15.24,7.21,11.13,13,21.66,17.1,29.3,2.05,3.82,3.69,6.93,4.8,9.09l1.27,2.49.32.65c.07.15.1.23.1.23a.87.87,0,0,1-.14-.21l-.37-.62-1.36-2.45-4.95-9c-4.2-7.59-10-18.08-17.22-29.19-3.62-5.54-7.27-10.68-10.75-15.23-1.77-2.25-3.43-4.41-5.1-6.34-.83-1-1.6-1.92-2.39-2.81l-2.28-2.52c-1.42-1.64-2.82-3-4-4.26l-1.67-1.72-1.46-1.39-2-2-.51-.52C269.1,108.14,269,108.07,269.05,108.06Z" style="fill: rgb(38, 50, 56); transform-origin: 296.233px 147.26px;" id="elt28dy73xc5n" class="animable"></path><path d="M267.79,126a4.54,4.54,0,0,1,1,.2c.67.17,1.62.43,2.79.77,2.34.69,5.56,1.72,9.07,3s6.65,2.49,8.88,3.47c1.12.49,2,.92,2.63,1.23a3.83,3.83,0,0,1,.91.54c0,.07-1.41-.53-3.68-1.42s-5.42-2.07-8.92-3.32-6.69-2.32-9-3.1l-2.74-.93A3.69,3.69,0,0,1,267.79,126Z" style="fill: rgb(38, 50, 56); transform-origin: 280.43px 130.608px;" id="elzixj2o73psi" class="animable"></path><path d="M286.5,112.66a58.88,58.88,0,0,1,.95,7.86,59,59,0,0,1,.41,7.91,58,58,0,0,1-.94-7.86A60.13,60.13,0,0,1,286.5,112.66Z" style="fill: rgb(38, 50, 56); transform-origin: 287.181px 120.545px;" id="elnj67ganvz3" class="animable"></path><path d="M271.52,143.26a6.92,6.92,0,0,1,1.28.4c.82.27,2,.64,3.49,1.06,3,.85,7.1,1.88,11.68,3s8.73,2.07,11.73,2.82c1.5.38,2.71.7,3.54.94a7.54,7.54,0,0,1,1.27.43,6.23,6.23,0,0,1-1.32-.23l-3.58-.77c-3-.66-7.18-1.57-11.77-2.67s-8.71-2.19-11.66-3.14c-1.47-.47-2.65-.9-3.45-1.23A5.18,5.18,0,0,1,271.52,143.26Z" style="fill: rgb(38, 50, 56); transform-origin: 288.015px 147.585px;" id="elb17l8bkb09p" class="animable"></path><path d="M300.31,118.74a3.65,3.65,0,0,1,.07,1v2.78c0,2.34,0,5.57-.09,9.15s-.18,6.81-.32,9.16c-.07,1.17-.15,2.11-.22,2.77a3.42,3.42,0,0,1-.18,1c-.07,0,0-1.45,0-3.79s.1-5.65.17-9.15.14-6.81.25-9.15c.05-1.17.11-2.12.16-2.78A4.52,4.52,0,0,1,300.31,118.74Z" style="fill: rgb(38, 50, 56); transform-origin: 299.964px 131.67px;" id="els3qapmlekt" class="animable"></path><path d="M312.62,139.24a16.19,16.19,0,0,1-.17,3.09c-.19,1.89-.52,4.51-1,7.38s-1,5.45-1.42,7.31a16.44,16.44,0,0,1-.81,3,20.12,20.12,0,0,1,.45-3.06c.35-2,.78-4.54,1.25-7.32s.82-5.3,1.14-7.34A20.6,20.6,0,0,1,312.62,139.24Z" style="fill: rgb(38, 50, 56); transform-origin: 310.927px 149.63px;" id="el5pszr9ja2a" class="animable"></path><path d="M291.39,163.53a17.07,17.07,0,0,1,3.07.17c1.89.18,4.49.5,7.34.94s5.44.91,7.29,1.31a17,17,0,0,1,3,.75,18,18,0,0,1-3.05-.38l-7.3-1.16-7.31-1.09A19.92,19.92,0,0,1,291.39,163.53Z" style="fill: rgb(38, 50, 56); transform-origin: 301.74px 165.11px;" id="elpjx3jk11p5" class="animable"></path><g id="eltxbdsulpqur"><g style="opacity: 0.3; transform-origin: 364.21px 147.52px;" class="animable"><path d="M359.22,141l0,0a124.8,124.8,0,0,1,39.87-25.48c-22.41,5-33.39,12.29-46,23s-20.12,24.8-23.76,41A164.59,164.59,0,0,1,349.52,151,80.05,80.05,0,0,1,359.22,141Z" id="elxohon7da09" class="animable" style="transform-origin: 364.21px 147.52px;"></path></g></g><g id="el9sawo4tjzkb"><g style="opacity: 0.3; transform-origin: 253.62px 187.868px;" class="animable"><path d="M162.07,184.6c5.44-9,13.75-13.51,24.35-14.1s21.06,2.23,31.29,5,20.68,5.64,31.28,5.09c11.18-.58,21.85-4.56,32.55-7.79,15.07-4.54,26.44-5,39.85-4.43,9,.38,17.74,2,23.78,8.61-30.82,1.55-56.44,21.74-86.63,28.08-33,6.93-68.66-.84-96.47-19.64" id="elpnfaf25urne" class="animable" style="transform-origin: 253.62px 187.868px;"></path></g></g><g id="el3lu6kkqg52g"><g style="opacity: 0.2; transform-origin: 271.9px 219.18px;" class="animable"><path d="M274.42,219.18a2.52,2.52,0,1,1-2.51-2.52A2.51,2.51,0,0,1,274.42,219.18Z" id="elpgndih83ek" class="animable" style="transform-origin: 271.9px 219.18px;"></path></g></g><g id="elde6cefn7qxr"><g style="opacity: 0.3; transform-origin: 314.57px 274.22px;" class="animable"><path d="M318.57,274.22a4,4,0,1,1-4-4A4,4,0,0,1,318.57,274.22Z" id="els76zd4wzgg" class="animable" style="transform-origin: 314.57px 274.22px;"></path></g></g><g id="elne71cnd7so"><g style="opacity: 0.3; transform-origin: 255.12px 299.3px;" class="animable"><path d="M258,299.29a2.88,2.88,0,1,1-2.88-2.87A2.87,2.87,0,0,1,258,299.29Z" id="el9nwtnimhej9" class="animable" style="transform-origin: 255.12px 299.3px;"></path></g></g><g id="ellw0zz6lxaoi"><g style="opacity: 0.3; transform-origin: 208.49px 348.56px;" class="animable"><path d="M209.93,348.56a1.44,1.44,0,1,1-1.44-1.44A1.43,1.43,0,0,1,209.93,348.56Z" id="elqem8tnw0dp" class="animable" style="transform-origin: 208.49px 348.56px;"></path></g></g><g id="el38jadxij9en"><g style="opacity: 0.3; transform-origin: 282.45px 257.4px;" class="animable"><path d="M283.71,257.4a1.26,1.26,0,1,1-1.25-1.26A1.25,1.25,0,0,1,283.71,257.4Z" style="fill: rgb(255, 255, 255); transform-origin: 282.45px 257.4px;" id="elc4mu1bq1aet" class="animable"></path></g></g><g id="elsd7fu049pv"><g style="opacity: 0.4; transform-origin: 206.567px 237.986px;" class="animable"><path d="M237.22,247.37l-8.78-35.45a4.56,4.56,0,0,0-4.15-3.58l-19.75-.82a4.09,4.09,0,0,0-2.19.51l-24.14,13.24a5,5,0,0,0-2.27,5.66c.55,2,1.28,4.71,2.1,7.7l5.32,18.91c1.57,5.35,2.83,9.32,3.18,9.55,1.38.91,16.75,4.2,21.88,5.28a4.2,4.2,0,0,0,3.12-.58l23.62-15A5,5,0,0,0,237.22,247.37Z" style="fill: rgb(255, 255, 255); transform-origin: 206.567px 237.986px;" id="elc49yobo76t" class="animable"></path></g></g><path d="M198.58,227c-.07.41-4.17.08-9.16-.74s-9-1.82-8.91-2.23,4.17-.09,9.16.73S198.64,226.54,198.58,227Z" style="fill: rgb(255, 255, 255); transform-origin: 189.545px 225.514px;" id="ela4y6min9vr7" class="animable"></path><path d="M220.21,214.39c.24.34-2.31,2.55-5.71,4.93s-6.34,4-6.58,3.7,2.31-2.56,5.71-4.94S220,214.05,220.21,214.39Z" style="fill: rgb(255, 255, 255); transform-origin: 214.065px 218.701px;" id="elhv4s5t9lpc" class="animable"></path><path d="M209.54,254.56c-.42.07-1.58-5.27-3-11.84s-2.49-11.92-2.07-12,2.16,5.09,3.56,11.71S210,254.5,209.54,254.56Z" style="fill: rgb(255, 255, 255); transform-origin: 207.037px 242.64px;" id="ele40n1rltwog" class="animable"></path><g id="elulocwju2i2"><g style="opacity: 0.3; transform-origin: 241.2px 227.57px;" class="animable"><path d="M242.46,227.56a1.26,1.26,0,1,1-1.25-1.25A1.25,1.25,0,0,1,242.46,227.56Z" style="fill: rgb(255, 255, 255); transform-origin: 241.2px 227.57px;" id="el6zwjxat5ml5" class="animable"></path></g></g><g id="elfwsaz79r9t"><g style="opacity: 0.3; transform-origin: 302.98px 264.4px;" class="animable"><path d="M304.86,264.4a1.88,1.88,0,1,1-1.88-1.88A1.88,1.88,0,0,1,304.86,264.4Z" id="elz242m0ooly" class="animable" style="transform-origin: 302.98px 264.4px;"></path></g></g><g id="el762sduu026q"><g style="opacity: 0.4; transform-origin: 309.74px 220.58px;" class="animable"><path d="M286.24,208.79a7.49,7.49,0,0,0-2.94,8.92c3.29,8.8,9.56,24.85,11.67,25.75s12.54,1.74,17.94,2.11a7.46,7.46,0,0,0,5.63-2L334.26,229a7.53,7.53,0,0,0,1.89-8.23l-7.91-20.4a7.53,7.53,0,0,0-7.54-4.78l-13.89,1a7.52,7.52,0,0,0-3.58,1.2Z" style="fill: rgb(255, 255, 255); transform-origin: 309.74px 220.58px;" id="elt8n2a0g1y7" class="animable"></path></g></g><path d="M301.27,215.62c.5-.19,3.06,5.71,5.84,13s5.93,12.82,5.46,13.12-4.38-4.94-7.21-12.43S300.8,215.8,301.27,215.62Z" style="fill: rgb(255, 255, 255); transform-origin: 306.905px 228.684px;" id="elm6yhqh2bose" class="animable"></path><path d="M300.66,214.88c-.19.51-3.47-.29-7.53-.2s-7.32.94-7.51.43,3-2.26,7.48-2.32S300.86,214.43,300.66,214.88Z" style="fill: rgb(255, 255, 255); transform-origin: 293.14px 214.03px;" id="elw5tvkptfdz" class="animable"></path><path d="M320.89,202c0,.28-1.06.54-2.35,1.69s-2.58,3.32-5.33,5.05c-3,1.47-5.51,1.17-7,2-1.56.64-2.08,1.65-2.34,1.55s-.09-1.55,1.7-2.72,4.62-1.33,6.71-2.46,3.7-3.54,5.49-4.49S320.91,201.73,320.89,202Z" style="fill: rgb(255, 255, 255); transform-origin: 312.332px 207.062px;" id="elom2ydmyt0a8" class="animable"></path><g id="ela20o6khp8db"><g style="opacity: 0.2; transform-origin: 226.927px 373.317px;" class="animable"><path d="M197.92,360.35a9.12,9.12,0,0,0-3.18,11c4.39,10.54,12.7,29.77,15.31,30.77s15.31,1.56,21.88,1.78a9.14,9.14,0,0,0,6.76-2.68l18.45-18.44a9.14,9.14,0,0,0,1.94-10.08l-10.51-24.44a9.15,9.15,0,0,0-9.37-5.48l-16.83,1.79a9.21,9.21,0,0,0-4.3,1.61Z" style="fill: rgb(255, 255, 255); transform-origin: 226.927px 373.317px;" id="elcngdw1xcbje" class="animable"></path></g></g><path d="M216.47,368c.6-.26,4,6.81,7.67,15.59s7.77,15.32,7.22,15.7-5.54-5.8-9.31-14.78S215.91,368.23,216.47,368Z" style="fill: rgb(255, 255, 255); transform-origin: 223.899px 383.65px;" id="elpik5thaynw" class="animable"></path><path d="M215.7,367.12c-.2.63-4.22-.2-9.15.08s-8.85,1.46-9.11.85,3.57-2.88,9-3.13S215.93,366.56,215.7,367.12Z" style="fill: rgb(255, 255, 255); transform-origin: 206.568px 366.56px;" id="el649oj1cwpic" class="animable"></path><path d="M239.71,350.54c0,.34-1.26.7-2.78,2.16s-3,4.14-6.25,6.37c-3.54,1.92-6.64,1.66-8.41,2.72-1.88.85-2.46,2.1-2.78,2s-.18-1.87,1.94-3.37,5.56-1.82,8-3.29,4.34-4.46,6.47-5.7S239.73,350.25,239.71,350.54Z" style="fill: rgb(255, 255, 255); transform-origin: 229.535px 357.081px;" id="eltsilsdz4mv" class="animable"></path><g id="elbgelk1x17ai"><g style="opacity: 0.8; transform-origin: 258.998px 177.157px;" class="animable"><path d="M227,193.22c3.73,3.52,11,8.64,21.22,7.39,11.78-1.45,32.22-9.41,40.8-12.91l2.45-5.76A9.14,9.14,0,0,0,289,171.37L276,160.43a9.18,9.18,0,0,0-4.14-2l-24.21-4.75A9.12,9.12,0,0,0,237.54,159c-4.59,10.47-12.74,29.79-11.66,32.36A11.22,11.22,0,0,0,227,193.22Z" style="fill: rgb(255, 255, 255); transform-origin: 258.998px 177.157px;" id="elibl8jigr8l" class="animable"></path></g></g><path d="M255,172.39c.39.18-2.11,6.53-5.47,14.2a49.9,49.9,0,0,0-3.67,9.93c-.62,2.68-1.19,4.32-1.39,4.27s0-1.73.34-4.47,1.6-6.53,3.33-10.33C251.51,178.28,254.61,172.23,255,172.39Z" style="fill: rgb(255, 255, 255); transform-origin: 249.715px 186.589px;" id="el6mxm1wrx9x4" class="animable"></path><path d="M255.08,171.23c-.4.21-2.45-3.41-6.12-6.84s-7.37-5.31-7.19-5.72,4.35.93,8.23,4.61S255.45,171.1,255.08,171.23Z" style="fill: rgb(255, 255, 255); transform-origin: 248.448px 164.919px;" id="elz00xokptrds" class="animable"></path><path d="M283.69,177.13c-.14.18-1.29-.62-3.44-.79a25.26,25.26,0,0,0-3.85,0,16,16,0,0,1-5-.27,15.12,15.12,0,0,1-4.49-2.31,14.43,14.43,0,0,0-3.33-1.78c-2-.72-3.34-.15-3.43-.37s1.27-1.2,3.71-.67c2.47.37,5,2.8,7.92,3.66,3.06.71,6.34,0,8.66.63S283.84,177,283.69,177.13Z" style="fill: rgb(255, 255, 255); transform-origin: 271.925px 173.971px;" id="elslmwgy7rqw8" class="animable"></path><g id="elz1oel74vgdm"><g style="opacity: 0.8; transform-origin: 201.622px 180.187px;" class="animable"><path d="M222.17,189.05A16.42,16.42,0,0,1,209.36,195c-7.45-.18-20.73-3.88-26.31-5.53L181.16,186a5.74,5.74,0,0,1,.92-6.76l7.41-7.64a5.75,5.75,0,0,1,2.46-1.5l14.85-4.48a5.73,5.73,0,0,1,6.66,2.68c3.52,6.26,9.82,17.83,9.3,19.5A6.78,6.78,0,0,1,222.17,189.05Z" style="fill: rgb(255, 255, 255); transform-origin: 201.622px 180.187px;" id="eltvfkkivudr" class="animable"></path></g></g><path d="M203.39,177.77c.36-.2,2.78,3.32,5.38,7.94a21.06,21.06,0,0,1,2.67,6.33c.34,1.7.49,2.76.29,2.83s-.72-.91-1.32-2.53a36,36,0,0,0-3-5.9C204.86,181.86,203,178,203.39,177.77Z" style="fill: rgb(255, 255, 255); transform-origin: 207.579px 186.318px;" id="elpaapj4xco8" class="animable"></path><path d="M203.26,177.05c-.39-.11.21-2.9,2.47-5.47s4.91-3.58,5.07-3.21-1.91,1.85-3.93,4.2S203.67,177.2,203.26,177.05Z" style="fill: rgb(255, 255, 255); transform-origin: 206.979px 172.677px;" id="elci06u21h298" class="animable"></path><path d="M185.74,182.51c-.16-.11.4-1,1.88-1.55s3.58-.4,5.33-1,3.16-2.34,4.75-2.7,2.56.21,2.43.37-.91,0-2,.63-2.26,2.1-4.6,3.12c-2.39.76-4.31.33-5.59.62S185.9,182.67,185.74,182.51Z" style="fill: rgb(255, 255, 255); transform-origin: 192.928px 179.845px;" id="elmdno55hf21q" class="animable"></path><path d="M280.08,293.79c3.1-.78,5.64-1.23,9-4.72,1.71-1.77,2.63-5,3-6.69,1.78-8.12,3.65-15,3.81-23.35h0l-2.82,4.63h0a20.13,20.13,0,0,0,0-11.88h0l-2.29,3.91h0a35.5,35.5,0,0,0-4.37-17.61h0l-.81,6.72h0a27.65,27.65,0,0,0-8-17.61h0a11.69,11.69,0,0,0-.14,6.45h0a38.1,38.1,0,0,0-9-14.9h0l-.4,6.14h0a17.29,17.29,0,0,0-11.32-9.3h0l2.37,4.1h0a24.58,24.58,0,0,0-18.24-6.85h0q1.38,5.44,2.77,10.9h0a3.68,3.68,0,0,0-3.8-.75h0l3.94,13h0l-3-1.61h0a43.6,43.6,0,0,0,3.53,19.57h0L240,252.27h0a40.74,40.74,0,0,0,8.2,21.25h0a1.28,1.28,0,0,0-1.41.57c-.48,1,0,2.16.57,3.12,3.67,6.6,9.76,11.88,16.3,15.36,0,0,6.31,3.85,12,2.84A18.12,18.12,0,0,0,280.08,293.79Z" style="fill: rgb(69, 90, 100); transform-origin: 267.865px 254.19px;" id="el3o92hmnoemu" class="animable"></path><path d="M253.55,222.86a4.34,4.34,0,0,1,.45.62l1.19,1.86c.53.8,1.15,1.8,1.82,3s1.49,2.51,2.28,4c1.65,3,3.44,6.67,5.3,10.81s3.66,8.78,5.4,13.72c3.46,9.88,5.9,19,7.55,25.69.82,3.32,1.45,6,1.86,7.89.19.9.34,1.62.46,2.16a5.57,5.57,0,0,1,.13.76,3.8,3.8,0,0,1-.23-.74c-.14-.53-.33-1.24-.56-2.13-.5-1.91-1.18-4.58-2-7.85-1.74-6.62-4.23-15.75-7.68-25.61-1.73-4.92-3.57-9.54-5.35-13.69s-3.58-7.82-5.19-10.83c-.76-1.54-1.54-2.87-2.2-4.06s-1.24-2.21-1.73-3l-1.11-1.91A4,4,0,0,1,253.55,222.86Z" style="fill: rgb(38, 50, 56); transform-origin: 266.77px 258.115px;" id="el5gq2hgxouar" class="animable"></path><path d="M247.89,238.86a3.14,3.14,0,0,1,.9.44c.56.32,1.36.79,2.34,1.4,2,1.21,4.63,3,7.51,5s5.43,3.94,7.21,5.4c.9.73,1.6,1.34,2.08,1.78a3.82,3.82,0,0,1,.7.73,37,37,0,0,1-3-2.21c-1.83-1.39-4.41-3.25-7.28-5.26s-5.51-3.81-7.41-5.1A29.83,29.83,0,0,1,247.89,238.86Z" style="fill: rgb(38, 50, 56); transform-origin: 258.26px 246.235px;" id="elf9lcth3pd4k" class="animable"></path><path d="M268.27,231.44a51.84,51.84,0,0,1-1.1,7.39,54.08,54.08,0,0,1-1.63,7.3,51.09,51.09,0,0,1,1.11-7.39A53.24,53.24,0,0,1,268.27,231.44Z" style="fill: rgb(38, 50, 56); transform-origin: 266.905px 238.785px;" id="elujbm85f97g" class="animable"></path><path d="M246.93,255.52a5.82,5.82,0,0,1,1.07.67c.68.45,1.67,1.09,2.91,1.85,2.49,1.51,6,3.49,9.88,5.64s7.43,4.09,10,5.53c1.27.72,2.29,1.32,3,1.75a5.38,5.38,0,0,1,1,.72,6,6,0,0,1-1.15-.54l-3.06-1.6c-2.58-1.36-6.14-3.24-10-5.39s-7.37-4.19-9.82-5.8c-1.22-.8-2.18-1.49-2.83-2A7.35,7.35,0,0,1,246.93,255.52Z" style="fill: rgb(38, 50, 56); transform-origin: 260.86px 263.6px;" id="elfpx16s6ehw" class="animable"></path><path d="M279.31,240.45a27.77,27.77,0,0,1-.88,3.47c-.59,2.13-1.43,5.07-2.39,8.31s-1.87,6.16-2.6,8.25c-.36,1-.67,1.89-.9,2.47a3.37,3.37,0,0,1-.42.87,32.27,32.27,0,0,1,1-3.45c.67-2.26,1.52-5.13,2.45-8.29s1.85-6.16,2.54-8.27A22.14,22.14,0,0,1,279.31,240.45Z" style="fill: rgb(38, 50, 56); transform-origin: 275.715px 252.135px;" id="el6kn2mgd7c4e" class="animable"></path><path d="M285.35,262.21a14.94,14.94,0,0,1-.92,2.76c-.65,1.68-1.61,4-2.75,6.47s-2.28,4.72-3.13,6.3a14.59,14.59,0,0,1-1.5,2.5,16.72,16.72,0,0,1,1.16-2.67c.84-1.78,1.86-3.95,3-6.35l2.89-6.39A16.57,16.57,0,0,1,285.35,262.21Z" style="fill: rgb(38, 50, 56); transform-origin: 281.2px 271.225px;" id="el6iuskxpi4j6" class="animable"></path><path d="M259.91,279a16,16,0,0,1,2.85,1c1.72.66,4.09,1.64,6.66,2.8s4.87,2.27,6.52,3.12a16.31,16.31,0,0,1,2.6,1.49,18.15,18.15,0,0,1-2.77-1.15l-6.57-3-6.59-2.93A18.88,18.88,0,0,1,259.91,279Z" style="fill: rgb(38, 50, 56); transform-origin: 269.225px 283.205px;" id="ellznpifw3ud" class="animable"></path><g id="eljmegeu6a0em"><g style="opacity: 0.4; transform-origin: 267.865px 254.19px;" class="animable"><path d="M280.08,293.79c3.1-.78,5.64-1.23,9-4.72,1.71-1.77,2.63-5,3-6.69,1.78-8.12,3.65-15,3.81-23.35h0l-2.82,4.63h0a20.13,20.13,0,0,0,0-11.88h0l-2.29,3.91h0a35.5,35.5,0,0,0-4.37-17.61h0l-.81,6.72h0a27.65,27.65,0,0,0-8-17.61h0a11.69,11.69,0,0,0-.14,6.45h0a38.1,38.1,0,0,0-9-14.9h0l-.4,6.14h0a17.29,17.29,0,0,0-11.32-9.3h0l2.37,4.1h0a24.58,24.58,0,0,0-18.24-6.85h0q1.38,5.44,2.77,10.9h0a3.68,3.68,0,0,0-3.8-.75h0l3.94,13h0l-3-1.61h0a43.6,43.6,0,0,0,3.53,19.57h0L240,252.27h0a40.74,40.74,0,0,0,8.2,21.25h0a1.28,1.28,0,0,0-1.41.57c-.48,1,0,2.16.57,3.12,3.67,6.6,9.76,11.88,16.3,15.36,0,0,6.31,3.85,12,2.84A18.12,18.12,0,0,0,280.08,293.79Z" style="fill: rgb(0, 255, 136); transform-origin: 267.865px 254.19px;" id="el7bwb6a2sq1g" class="animable"></path></g></g><g id="el7knuv7luac3"><g style="opacity: 0.2; transform-origin: 291.592px 293.96px;" class="animable"><path d="M284.86,269.36a7.47,7.47,0,0,0-8.69,3.49c-4.58,8.15-12.78,23.22-12.11,25.4s6.73,10.67,9.9,15a7.51,7.51,0,0,0,5.14,3l21.21,2.58a7.5,7.5,0,0,0,7.48-3.84l10.45-19.11a7.48,7.48,0,0,0-1.19-8.81l-9.65-10a7.47,7.47,0,0,0-3.21-2Z" style="fill: rgb(255, 255, 255); transform-origin: 291.592px 293.96px;" id="el0kilslw6yn7" class="animable"></path></g></g><path d="M289.29,285.18c.47.26-2.38,6-6.18,12.82s-6,12.75-6.48,12.58.94-6.5,4.83-13.47S288.86,284.94,289.29,285.18Z" style="fill: rgb(255, 255, 255); transform-origin: 282.94px 297.878px;" id="el64robol484" class="animable"></path><path d="M289.47,284.24c-.51.19-2-2.82-4.68-5.86s-5.41-5-5.15-5.44,3.66.85,6.57,4.21S289.94,284.11,289.47,284.24Z" style="fill: rgb(255, 255, 255); transform-origin: 284.608px 278.553px;" id="el8uk92czwwyj" class="animable"></path><path d="M312.28,291.36c-.19.2-1.09-.46-2.79-.7s-4.18.16-7.27-.82c-3-1.31-4.43-3.45-6-4-1.5-.78-2.59-.53-2.69-.79s1.12-1.06,3.16-.45,4,2.67,6.18,3.53,5.07.55,6.95,1.3S312.48,291.22,312.28,291.36Z" style="fill: rgb(255, 255, 255); transform-origin: 302.917px 287.886px;" id="elqvr84odxyvk" class="animable"></path><path d="M251.73,403.88l-1.54,1.06a11.64,11.64,0,0,0,8.83.31c-.62.45-1.25.89-1.88,1.33a23.26,23.26,0,0,0,11.32-.87l-1.56,1.72a15.14,15.14,0,0,0,9.42-3.33l-1,1.92a19.7,19.7,0,0,0,9.45-5.51c-.32.84-.65,1.67-1,2.51A23.72,23.72,0,0,0,294.52,395a3.15,3.15,0,0,0-.66,2.69,24.6,24.6,0,0,0,7.57-8.37c.08.87.15,1.74.23,2.61a25.14,25.14,0,0,0,4.71-8.55c.2,1.27.39,2.55.58,3.82a34.12,34.12,0,0,0,3.25-25,19.67,19.67,0,0,0-5.53-9.39h0c-13.73,22.34-34.08,41.3-58.89,49.78A6.9,6.9,0,0,0,251.73,403.88Z" style="fill: rgb(69, 90, 100); transform-origin: 278.517px 380.12px;" id="elb2uprys8lpp" class="animable"></path><path d="M245.78,402.54a7.62,7.62,0,0,1,.82-.22l2.37-.54c2-.5,5-1.25,8.57-2.45a89.05,89.05,0,0,0,12.17-5.14,83.48,83.48,0,0,0,13.58-8.73,69.54,69.54,0,0,0,6.27-5.54,51.39,51.39,0,0,0,5.05-5.92,60.1,60.1,0,0,0,6.51-11.46,70.7,70.7,0,0,0,3-8.38c.32-1,.52-1.79.68-2.33a4.5,4.5,0,0,1,.27-.8,7.1,7.1,0,0,1-.16.83c-.13.54-.3,1.35-.59,2.36a63.62,63.62,0,0,1-2.89,8.47,58.55,58.55,0,0,1-6.46,11.6,52.07,52.07,0,0,1-5.07,6,70.34,70.34,0,0,1-6.32,5.59,81.58,81.58,0,0,1-13.69,8.75,85.41,85.41,0,0,1-12.27,5.06A86.58,86.58,0,0,1,249,402c-1,.21-1.84.34-2.39.44A4.81,4.81,0,0,1,245.78,402.54Z" style="fill: rgb(38, 50, 56); transform-origin: 275.425px 376.785px;" id="elkxtkk76u1wc" class="animable"></path><path d="M292.25,392.82a14.12,14.12,0,0,1,.07-2.16,48,48,0,0,0-.11-5.19c-.15-2-.4-3.85-.63-5.16a12.54,12.54,0,0,1-.33-2.14c.15-.06,1.22,3.14,1.49,7.26a29.84,29.84,0,0,1,0,5.25A6.59,6.59,0,0,1,292.25,392.82Z" style="fill: rgb(38, 50, 56); transform-origin: 292.053px 385.495px;" id="elwb1gwdoy9a" class="animable"></path><path d="M281.57,397.64c-.13-.05.76-2.71,1.32-6.13a60.4,60.4,0,0,1,1.09-6.19,27.09,27.09,0,0,1-.57,6.28C282.85,395.06,281.71,397.71,281.57,397.64Z" style="fill: rgb(38, 50, 56); transform-origin: 282.773px 391.481px;" id="elny48cpawf6" class="animable"></path><path d="M265.36,402.75a12.34,12.34,0,0,1,1.52-1.5c.95-.9,2.24-2.17,3.58-3.65a29.49,29.49,0,0,0,3.11-4c.68-1.11.88-1.89,1-1.88a4.1,4.1,0,0,1-.63,2.06,20.74,20.74,0,0,1-3,4.2A22.35,22.35,0,0,1,265.36,402.75Z" style="fill: rgb(38, 50, 56); transform-origin: 269.965px 397.235px;" id="el2ataq4zqbp2" class="animable"></path><path d="M301.27,384.23c-.09,0,.2-1,.32-2.56a32.59,32.59,0,0,0-.21-6.21,52,52,0,0,0-1.12-6.13,21.62,21.62,0,0,1-.62-2.53,9.18,9.18,0,0,1,1,2.42,35.43,35.43,0,0,1,1.29,6.18,25.69,25.69,0,0,1,0,6.31A6.47,6.47,0,0,1,301.27,384.23Z" style="fill: rgb(38, 50, 56); transform-origin: 300.882px 375.515px;" id="el247gxpafjc9" class="animable"></path><g id="el0uep2gm3hcxb"><g style="opacity: 0.3; transform-origin: 275.265px 377.62px;" class="animable"><path d="M279.1,383.09l0,0a101.56,101.56,0,0,1-33.28,19.42c18.4-3.33,27.57-8.9,38.2-17.22s17.2-19.53,20.69-32.56a133.62,133.62,0,0,1-17.35,22.52A64.32,64.32,0,0,1,279.1,383.09Z" id="elguk1bitj1th" class="animable" style="transform-origin: 275.265px 377.62px;"></path></g></g><g id="el7d9j76n1cuu"><g style="opacity: 0.3; transform-origin: 278.517px 380.12px;" class="animable"><path d="M251.73,403.88l-1.54,1.06a11.64,11.64,0,0,0,8.83.31c-.62.45-1.25.89-1.88,1.33a23.26,23.26,0,0,0,11.32-.87l-1.56,1.72a15.14,15.14,0,0,0,9.42-3.33l-1,1.92a19.7,19.7,0,0,0,9.45-5.51c-.32.84-.65,1.67-1,2.51A23.72,23.72,0,0,0,294.52,395a3.15,3.15,0,0,0-.66,2.69,24.6,24.6,0,0,0,7.57-8.37c.08.87.15,1.74.23,2.61a25.14,25.14,0,0,0,4.71-8.55c.2,1.27.39,2.55.58,3.82a34.12,34.12,0,0,0,3.25-25,19.67,19.67,0,0,0-5.53-9.39h0c-13.73,22.34-34.08,41.3-58.89,49.78A6.9,6.9,0,0,0,251.73,403.88Z" style="fill: rgb(0, 255, 136); transform-origin: 278.517px 380.12px;" id="elbs6auao6rv" class="animable"></path></g></g><path d="M360,146s-.18.07-.53.17l-1.57.43-6.05,1.63-4.38,1.16c-1.61.4-3.37.78-5.25,1.21-3.78.83-8.05,1.9-12.85,2.74l-7.51,1.42c-2.61.48-5.35.84-8.18,1.29-5.64,1-11.73,1.59-18.12,2.35-12.81,1.27-26.95,2.11-41.81,2.1s-29-1.07-41.8-2.44c-6.38-.81-12.46-1.5-18.1-2.5-2.82-.47-5.56-.85-8.17-1.36l-7.49-1.48c-4.79-.87-9.06-2-12.83-2.84-1.88-.45-3.63-.84-5.24-1.25l-4.37-1.2-6-1.68-1.57-.44-.53-.17.54.11,1.58.4,6.07,1.58,4.37,1.15c1.61.4,3.37.77,5.25,1.21,3.77.84,8,1.91,12.83,2.76l7.49,1.45c2.61.49,5.35.86,8.17,1.33,5.64,1,11.71,1.65,18.09,2.44,12.79,1.34,26.9,2.29,41.75,2.39s29-.81,41.75-2c6.39-.74,12.47-1.36,18.11-2.29,2.82-.44,5.56-.79,8.17-1.27l7.51-1.38c4.8-.81,9.07-1.85,12.85-2.66,1.89-.42,3.65-.78,5.26-1.17l4.38-1.11,6.08-1.53,1.58-.38C359.84,146.05,360,146,360,146Z" style="fill: rgb(38, 50, 56); transform-origin: 253.825px 152.82px;" id="el4tvj0hwvrav" class="animable"></path></g><g id="freepik--Mint--inject-44" class="animable animator-hidden" style="transform-origin: 167.07px 446.044px;"><path d="M204.22,437.41c-.49-3.34-.68-6.07-4-10-1.68-2-5-3.32-6.72-3.89-8.36-2.76-15.43-5.49-24.18-6.56h0l4.57,3.47h0a21.39,21.39,0,0,0-12.52-1.28h0l3.88,2.84h0a37.53,37.53,0,0,0-19,2.68h0l7,1.6h0a29.3,29.3,0,0,0-19.43,6.51h0a12.4,12.4,0,0,0,6.78.87h0a40.37,40.37,0,0,0-16.68,7.88h0l6.42,1.09h0a18.33,18.33,0,0,0-11,10.9h0l4.58-2.05h0a26,26,0,0,0-9.21,18.46h0l11.78-1.72h0a3.89,3.89,0,0,0-1.19,3.92h0l14.11-2.73h0l-2,3h0a46,46,0,0,0,21-1.59h0l-2.22,4.31h0a43.08,43.08,0,0,0,23.28-6.32h0a1.35,1.35,0,0,0,.44,1.54c1,.62,2.28.19,3.35-.26,7.35-3.15,13.58-9,18-15.49,0,0,4.73-6.22,4.29-12.32A19.5,19.5,0,0,0,204.22,437.41Z" style="fill: rgb(69, 90, 100); transform-origin: 160.144px 446.044px;" id="elm1hy9j7air" class="animable"></path><path d="M126.6,457.62l.22-.13.64-.34,2.5-1.24,1.82-.9,2.2-1c1.58-.68,3.37-1.51,5.4-2.26l3.18-1.24c1.11-.42,2.28-.8,3.49-1.23,2.4-.87,5-1.64,7.76-2.5,5.52-1.6,11.64-3.15,18.13-4.5,13-2.65,24.91-4.19,33.52-5.24,4.31-.52,7.8-.9,10.22-1.16l2.78-.27.72-.06h.25a.81.81,0,0,1-.24.06l-.72.11-2.77.38-10.19,1.33c-8.6,1.14-20.49,2.73-33.46,5.38-6.48,1.35-12.59,2.88-18.1,4.45-2.74.84-5.36,1.6-7.76,2.45-1.2.41-2.38.79-3.49,1.2l-3.18,1.2c-2,.73-3.83,1.53-5.42,2.18l-2.22.94-1.83.84-2.54,1.16-.67.29A.77.77,0,0,1,126.6,457.62Z" style="fill: rgb(38, 50, 56); transform-origin: 173.015px 446.585px;" id="elxl9rhlexjy9" class="animable"></path><path d="M142.84,465.33a3.92,3.92,0,0,1,.57-.9c.39-.55,1-1.35,1.73-2.31,1.49-1.93,3.62-4.55,6.06-7.37s4.74-5.28,6.47-7c.87-.87,1.59-1.54,2.1-2a4.43,4.43,0,0,1,.84-.66c0,.06-1,1.13-2.67,2.92s-3.9,4.29-6.34,7.09-4.6,5.39-6.17,7.26l-1.86,2.2A3.94,3.94,0,0,1,142.84,465.33Z" style="fill: rgb(38, 50, 56); transform-origin: 151.725px 455.21px;" id="el5dt0yhgtcu7" class="animable"></path><path d="M137.25,443a59.32,59.32,0,0,1,7.66,2,59.15,59.15,0,0,1,7.52,2.5,59.21,59.21,0,0,1-7.67-2A57.47,57.47,0,0,1,137.25,443Z" style="fill: rgb(38, 50, 56); transform-origin: 144.84px 445.25px;" id="elpy6ailx3k87" class="animable"></path><path d="M160.28,468.16a7.16,7.16,0,0,1,.84-1.05c.54-.67,1.33-1.64,2.26-2.87,1.87-2.45,4.34-5.92,7-9.78s5.11-7.38,6.91-9.9c.89-1.25,1.63-2.26,2.16-2.95a6.73,6.73,0,0,1,.87-1,6.1,6.1,0,0,1-.7,1.15c-.54.81-1.22,1.83-2,3-1.72,2.56-4.09,6.11-6.78,10s-5.22,7.32-7.17,9.72c-1,1.2-1.81,2.14-2.41,2.76A6.37,6.37,0,0,1,160.28,468.16Z" style="fill: rgb(38, 50, 56); transform-origin: 170.3px 454.385px;" id="elk5f4mteonm" class="animable"></path><path d="M148,432.4a4.12,4.12,0,0,1,1,.31l2.59,1c2.17.86,5.18,2.06,8.48,3.43s6.29,2.64,8.41,3.63c1.07.5,1.92.92,2.5,1.22a4.24,4.24,0,0,1,.88.53,35.37,35.37,0,0,1-3.53-1.4l-8.46-3.49c-3.3-1.37-6.29-2.62-8.43-3.57-1.07-.48-1.93-.88-2.52-1.17A3.33,3.33,0,0,1,148,432.4Z" style="fill: rgb(38, 50, 56); transform-origin: 159.93px 437.46px;" id="elragih9wmy7c" class="animable"></path><path d="M171.53,428.42a16,16,0,0,1,2.8,1.28c1.7.87,4,2.13,6.52,3.61s4.72,2.91,6.29,4a16.26,16.26,0,0,1,2.48,1.84,17,17,0,0,1-2.68-1.52l-6.36-3.84L174.15,430A20.46,20.46,0,0,1,171.53,428.42Z" style="fill: rgb(38, 50, 56); transform-origin: 180.575px 433.785px;" id="eljiwcehn4dlc" class="animable"></path><path d="M186.4,457a16.49,16.49,0,0,1,1.27-2.79c.86-1.69,2.1-4,3.55-6.5s2.84-4.72,3.88-6.31a16.5,16.5,0,0,1,1.79-2.49,17.46,17.46,0,0,1-1.47,2.69L191.68,448,188,454.43A19.79,19.79,0,0,1,186.4,457Z" style="fill: rgb(38, 50, 56); transform-origin: 191.645px 447.955px;" id="elxbbht2baai" class="animable"></path></g><defs>     <filter id="active" height="200%">         <feMorphology in="SourceAlpha" result="DILATED" operator="dilate" radius="2"></feMorphology>                <feFlood flood-color="#32DFEC" flood-opacity="1" result="PINK"></feFlood>        <feComposite in="PINK" in2="DILATED" operator="in" result="OUTLINE"></feComposite>        <feMerge>            <feMergeNode in="OUTLINE"></feMergeNode>            <feMergeNode in="SourceGraphic"></feMergeNode>        </feMerge>    </filter>    <filter id="hover" height="200%">        <feMorphology in="SourceAlpha" result="DILATED" operator="dilate" radius="2"></feMorphology>                <feFlood flood-color="#ff0000" flood-opacity="0.5" result="PINK"></feFlood>        <feComposite in="PINK" in2="DILATED" operator="in" result="OUTLINE"></feComposite>        <feMerge>            <feMergeNode in="OUTLINE"></feMergeNode>            <feMergeNode in="SourceGraphic"></feMergeNode>        </feMerge>            <feColorMatrix type="matrix" values="0   0   0   0   0                0   1   0   0   0                0   0   0   0   0                0   0   0   1   0 "></feColorMatrix>    </filter></defs></svg>